<svg width="133" height="50" viewBox="0 0 133 50" fill="none" xmlns="http://www.w3.org/2000/svg">
<g clip-path="url(#clip0_63_319)">
<path d="M6.22528 18.7801C9.62481 18.7801 12.3807 16.0243 12.3807 12.6247C12.3807 9.22521 9.62481 6.46934 6.22528 6.46934C2.82575 6.46934 0.0698851 9.22521 0.0698851 12.6247C0.0698851 16.0243 2.82575 18.7801 6.22528 18.7801Z" fill="white"/>
<path d="M49.4119 49.4172C49.4119 49.4172 49.212 38.7103 49.2055 36.268C49.198 36.268 49.1905 36.268 49.1819 36.268C41.4162 36.8119 24.6431 32.4077 24.6431 24.9354C24.6431 12.6483 49.2045 12.6246 49.2045 12.6246L49.1808 0.159021C49.1808 0.159021 39.9896 0.0429222 36.9291 0.159021C17.102 0.913664 17.5944 18.3565 18.7081 24.2388C19.3552 27.6605 21.0139 31.9959 23.8379 36.1013L12.3667 36.1648C4.29028 36.3744 -0.655752 43.665 0.0677166 49.7086L12.2732 49.6129C12.2732 49.6129 12.6784 37.7643 24.6409 37.2193C29.5655 43.7875 37.5956 49.4764 49.4109 49.4172H49.4119Z" fill="white"/>
<path d="M125.398 9.15675C123.236 8.4666 122.186 7.56576 122.186 6.0038C122.186 4.44184 123.596 2.97125 125.158 2.97125C126.99 2.97125 128.281 4.17202 128.281 6.18332H131.523C131.463 2.31013 128.82 -0.00109863 125.158 -0.00109863C121.735 -0.00109863 118.943 2.67133 118.943 6.064C118.943 9.21695 120.144 11.0176 125.638 12.8794C127.205 13.4148 127.978 14.0813 128.442 14.8746C128.773 15.439 129.045 16.0571 129.045 16.7602C129.045 18.1007 128.057 19.6132 126.837 19.9303C124.531 20.5291 122.908 18.794 120.999 16.6269C119.128 14.5027 111.274 2.63048 109.344 -2.36396e-05H105.854V16.141H105.792L94.0703 -2.36396e-05H90.5787V23.0585H94.0369V5.18788H94.1004L107.166 23.0575H109.024V5.30398C109.024 5.30398 116.675 15.8335 119.296 19.2617C121.063 21.574 123.239 23.0575 125.695 23.0575C126.923 23.0822 132.309 22.7672 132.259 16.4592C132.259 12.4806 130.201 10.6875 125.397 9.15567L125.398 9.15675Z" fill="white"/>
<path d="M81.4897 29.1709C76.9898 29.1709 74.1615 31.4423 73.2617 35.3413L76.09 36.0701C76.7758 33.1558 78.4464 31.6562 81.4467 31.6562C85.0468 31.6562 86.3314 33.4988 86.3314 36.799V38.6415H79.4751C74.7613 38.6415 72.4898 41.1699 72.4898 44.469C72.4898 45.3032 72.6049 46.0224 72.8252 46.6405L72.2598 46.5642C66.5785 45.8117 61.3594 40.7206 60.5843 32.3002C60.3038 29.2536 60.4629 25.5084 60.4629 25.5084H57.0777C57.0627 27.5702 57.068 30.8865 57.2239 32.5033C57.8528 39.035 60.2876 44.0767 65.2885 47.3264C69.7443 50.2224 79.6031 49.9956 79.6031 49.9956L79.5934 49.9891C88.5964 50.203 88.9888 43.6843 89.2489 40.2938C89.6897 34.5469 87.7751 29.1709 81.4897 29.1709ZM86.3314 42.1987C86.3314 45.2409 83.674 47.5123 79.6031 47.5123C76.4318 47.5123 75.3611 45.9267 75.3611 44.2132C75.3611 41.9847 76.9468 40.8281 79.8181 40.8281H86.3314V42.1997V42.1987Z" fill="white"/>
<path d="M101.205 29.3203C97.1899 29.3203 94.9496 31.7293 93.9768 35.0693H93.966V25.5084H90.5798V49.4398H93.7241V44.0713H93.9359C94.8658 47.4532 97.4017 49.9042 101.418 49.9042C106.237 49.9042 109.153 46.2686 109.153 39.6327C109.153 32.9967 106.364 29.3192 101.207 29.3192L101.205 29.3203ZM100.19 47.3274C96.259 47.3274 93.7231 44.4959 93.7231 40.3959V38.9167C93.7231 34.6479 96.259 31.9852 100.19 31.9852C104.121 31.9852 106.235 34.4372 106.235 39.6359C106.235 44.8345 104.248 47.3285 100.19 47.3285V47.3274Z" fill="white"/>
<path d="M84.1245 0L70.2259 20.2464L65.8851 14.4575C69.1251 14.364 72.4909 12.0582 72.4909 7.66468C72.4909 2.92827 70.0292 0 64.4833 0H57.0981V23.0585H60.4639V12.371H60.5263L68.1297 23.0585H72.4103L77.0532 16.2657H84.9049V23.0585H88.2696V0H84.1255H84.1245ZM60.4628 11.9034V3.08522H64.0157C67.0063 3.08522 69.1262 4.73641 69.1262 7.38518C69.1262 10.3769 66.8515 11.9034 62.9256 11.9034H60.4639H60.4628ZM84.9038 13.1805H79.1709L84.8426 4.36231H84.9049" fill="white"/>
</g>
<defs>
<clipPath id="clip0_63_319">
<rect width="132.261" height="50.0001" fill="white"/>
</clipPath>
</defs>
</svg>
