<?xml version="1.0" encoding="UTF-8"?>
<svg id="Layer_2" data-name="Layer 2" xmlns="http://www.w3.org/2000/svg" viewBox="0 0 1230.34 465.12">
  <defs>
    <style>
      .cls-1 {
        fill: #fff;
      }
    </style>
  </defs>
  <g id="Layer_4" data-name="Layer 4">
    <g>
      <rect class="cls-1" x="857.38" y="214.5" width="16.72" height="0"/>
      <g>
        <circle class="cls-1" cx="57.91" cy="117.44" r="57.26"/>
        <path class="cls-1" d="M459.65,459.7s-1.86-99.6-1.92-122.32c-.07,0-.14,0-.22,0-72.24,5.06-228.27-35.91-228.27-105.42,0-114.3,228.48-114.52,228.48-114.52l-.22-115.96s-85.5-1.08-113.97,0c-184.44,7.02-179.86,169.28-169.5,224,6.02,31.83,21.45,72.16,47.72,110.35l-106.71.59c-75.13,1.95-121.14,69.77-114.41,125.99l113.54-.89s3.77-110.22,115.05-115.29c45.81,61.1,120.51,114.02,230.42,113.47Z"/>
      </g>
      <path class="cls-1" d="M1166.5,85.18c-20.11-6.42-29.88-14.8-29.88-29.33s13.12-28.21,27.65-28.21c17.04,0,29.05,11.17,29.05,29.88h30.16c-.56-36.03-25.14-57.53-59.21-57.53-31.84,0-57.81,24.86-57.81,56.42,0,29.33,11.17,46.08,62.28,63.4,14.57,4.98,21.76,11.18,26.08,18.56,3.08,5.25,5.61,11,5.61,17.54,0,12.47-9.19,26.54-20.54,29.49-21.45,5.57-36.55-10.57-54.31-30.73-17.4-19.76-90.46-130.2-108.42-154.67h-32.46v150.15h-.58L875.08,0h-32.48v214.5h32.17V48.26h.59l121.54,166.23h17.29V49.34s71.17,97.95,95.55,129.84c16.44,21.51,36.68,35.31,59.53,35.31,11.42.23,61.52-2.7,61.06-61.38,0-37.01-19.15-53.69-63.84-67.94Z"/>
      <g>
        <path class="cls-1" d="M758.05,271.36c-41.86,0-68.17,21.13-76.54,57.4l26.31,6.78c6.38-27.11,21.92-41.06,49.83-41.06,33.49,0,45.44,17.14,45.44,47.84v17.14h-63.78c-43.85,0-64.98,23.52-64.98,54.21,0,7.76,1.07,14.45,3.12,20.2l-5.26-.71c-52.85-7-101.4-54.36-108.61-132.69-2.61-28.34-1.13-63.18-1.13-63.18h-31.49c-.14,19.18-.09,50.03,1.36,65.07,5.85,60.76,28.5,107.66,75.02,137.89,41.45,26.94,133.16,24.83,133.16,24.83l-.09-.06c83.75,1.99,87.4-58.65,89.82-90.19,4.1-53.46-13.71-103.47-72.18-103.47ZM803.09,392.55c0,28.3-24.72,49.43-62.59,49.43-29.5,0-39.46-14.75-39.46-30.69,0-20.73,14.75-31.49,41.46-31.49h60.59v12.76Z"/>
        <path class="cls-1" d="M941.45,272.75c-37.35,0-58.19,22.41-67.24,53.48h-.1v-88.94h-31.5v222.62h29.25v-49.94h1.97c8.65,31.46,32.24,54.26,69.6,54.26,44.83,0,71.96-33.82,71.96-95.55s-25.95-95.94-73.92-95.94ZM932.01,440.26c-36.57,0-60.16-26.34-60.16-64.48v-13.76c0-39.71,23.59-64.48,60.16-64.48s56.23,22.81,56.23,71.17-18.48,71.56-56.23,71.56Z"/>
      </g>
      <path class="cls-1" d="M782.56,0l-129.29,188.34-40.38-53.85c30.14-.87,61.45-22.32,61.45-63.19,0-44.06-22.9-71.3-74.49-71.3h-68.7v214.5h31.31v-99.42h.58l70.73,99.42h39.82l43.19-63.19h73.04v63.19h31.3V0h-38.55ZM562.45,110.73V28.7h33.05c27.82,0,47.54,15.36,47.54,40,0,27.83-21.16,42.03-57.68,42.03h-22.9ZM789.81,122.61h-53.33l52.76-82.03h.58"/>
    </g>
  </g>
</svg>