<svg width="80" height="30" viewBox="0 0 80 30" fill="none" xmlns="http://www.w3.org/2000/svg">
<g clip-path="url(#clip0_64_582)">
<path d="M3.73517 11.2681C5.77489 11.2681 7.42841 9.61455 7.42841 7.57483C7.42841 5.53511 5.77489 3.88159 3.73517 3.88159C1.69545 3.88159 0.0419312 5.53511 0.0419312 7.57483C0.0419312 9.61455 1.69545 11.2681 3.73517 11.2681Z" fill="#B2284B"/>
<path d="M29.6472 29.6504C29.6472 29.6504 29.5272 23.2262 29.5233 21.7608C29.5188 21.7608 29.5143 21.7608 29.5091 21.7608C24.8497 22.0872 14.7858 19.4446 14.7858 14.9613C14.7858 7.58898 29.5227 7.57479 29.5227 7.57479L29.5085 0.0954281C29.5085 0.0954281 23.9938 0.0257687 22.1575 0.0954281C10.2612 0.548214 10.5566 11.0139 11.2248 14.5433C11.6131 16.5963 12.6083 19.1976 14.3027 21.6608L7.41999 21.6989C2.57415 21.8247 -0.393476 26.199 0.0406056 29.8252L7.36388 29.7678C7.36388 29.7678 7.60704 22.6586 14.7845 22.3316C17.7393 26.2725 22.5574 29.6859 29.6465 29.6504H29.6472Z" fill="#B2284B"/>
<path d="M75.2386 5.49401C73.9416 5.07992 73.3114 4.53942 73.3114 3.60224C73.3114 2.66506 74.1576 1.78271 75.0948 1.78271C76.1939 1.78271 76.9685 2.50317 76.9685 3.70995H78.9138C78.8777 1.38604 77.2923 -0.000701904 75.0948 -0.000701904C73.0411 -0.000701904 71.3661 1.60276 71.3661 3.63836C71.3661 5.53013 72.0866 6.6105 75.3831 7.72763C76.3229 8.04883 76.7866 8.44873 77.0653 8.92474C77.2639 9.26336 77.4271 9.63423 77.4271 10.0561C77.4271 10.8604 76.8344 11.7679 76.1023 11.9581C74.7188 12.3174 73.7448 11.2764 72.5993 9.97608C71.477 8.70157 66.7647 1.57825 65.6063 -5.69095e-05H63.5126V9.68454H63.4752L56.4422 -5.69095e-05H54.3473V13.8351H56.4222V3.11269H56.4603L64.2995 13.8344H65.4147V3.18235C65.4147 3.18235 70.0052 9.50007 71.5777 11.557C72.638 12.9443 73.9435 13.8344 75.4173 13.8344C76.1539 13.8493 79.3853 13.6603 79.3556 9.87546C79.3556 7.48833 78.1205 6.41248 75.238 5.49336L75.2386 5.49401Z" fill="#B2284B"/>
<path d="M48.8938 17.5025C46.1939 17.5025 44.4969 18.8654 43.957 21.2048L45.654 21.6421C46.0655 19.8935 47.0678 18.9938 48.868 18.9938C51.0281 18.9938 51.7989 20.0993 51.7989 22.0794V23.1849H47.6851C44.8568 23.1849 43.4939 24.702 43.4939 26.6815C43.4939 27.182 43.5629 27.6135 43.6952 27.9843L43.3559 27.9386C39.9471 27.4871 36.8157 24.4324 36.3506 19.3801C36.1823 17.5522 36.2777 15.305 36.2777 15.305H34.2466C34.2376 16.5421 34.2408 18.5319 34.3344 19.502C34.7117 23.421 36.1726 26.446 39.1731 28.3959C41.8466 30.1335 47.7619 29.9974 47.7619 29.9974L47.7561 29.9935C53.1579 30.1219 53.3933 26.2106 53.5494 24.1763C53.8138 20.7282 52.6651 17.5025 48.8938 17.5025ZM51.7989 25.3192C51.7989 27.1446 50.2045 28.5074 47.7619 28.5074C45.8591 28.5074 45.2167 27.5561 45.2167 26.5279C45.2167 25.1909 46.1681 24.4969 47.8909 24.4969H51.7989V25.3199V25.3192Z" fill="#B2284B"/>
<path d="M60.7231 17.5922C58.314 17.5922 56.9698 19.0376 56.3861 21.0416H56.3797V15.3051H54.3479V29.6639H56.2345V26.4428H56.3616C56.9195 28.472 58.4411 29.9426 60.8508 29.9426C63.7423 29.9426 65.4922 27.7612 65.4922 23.7796C65.4922 19.7981 63.8184 17.5916 60.7243 17.5916L60.7231 17.5922ZM60.1142 28.3965C57.7554 28.3965 56.2339 26.6976 56.2339 24.2376V23.3501C56.2339 20.7888 57.7554 19.1911 60.1142 19.1911C62.4729 19.1911 63.741 20.6624 63.741 23.7816C63.741 26.9008 62.549 28.3972 60.1142 28.3972V28.3965Z" fill="#B2284B"/>
<path d="M50.4747 -4.57764e-05L42.1356 12.1478L39.5311 8.67449C41.4751 8.61838 43.4946 7.23486 43.4946 4.59877C43.4946 1.75692 42.0176 -4.57764e-05 38.69 -4.57764e-05H34.2589V13.8351H36.2784V7.42255H36.3158L40.8778 13.8351H43.4462L46.232 9.75937H50.943V13.8351H52.9618V-4.57764e-05H50.4754H50.4747ZM36.2777 7.14198V1.85109H38.4095C40.2038 1.85109 41.4758 2.8418 41.4758 4.43107C41.4758 6.22609 40.1109 7.14198 37.7554 7.14198H36.2784H36.2777ZM50.9423 7.90824H47.5026L50.9056 2.61734H50.943" fill="#B2284B"/>
</g>
<defs>
<clipPath id="clip0_64_582">
<rect width="79.3563" height="30" fill="white"/>
</clipPath>
</defs>
</svg>
