<svg width="277" height="50" viewBox="0 0 277 50" fill="none" xmlns="http://www.w3.org/2000/svg">
<g clip-path="url(#clip0_63_318)">
<g clip-path="url(#clip1_63_318)">
<path d="M150.115 18.7802C153.514 18.7802 156.27 16.0243 156.27 12.6248C156.27 9.22523 153.514 6.46936 150.115 6.46936C146.715 6.46936 143.959 9.22523 143.959 12.6248C143.959 16.0243 146.715 18.7802 150.115 18.7802Z" fill="white"/>
<path d="M193.301 49.4174C193.301 49.4174 193.101 38.7104 193.095 36.268C193.087 36.268 193.08 36.268 193.071 36.268C185.306 36.812 168.532 32.4077 168.532 24.9355C168.532 12.6483 193.094 12.6246 193.094 12.6246L193.07 0.159022C193.07 0.159022 183.879 0.0429223 180.819 0.159022C160.991 0.913667 161.484 18.3565 162.597 24.2389C163.245 27.6606 164.903 31.996 167.727 36.1014L156.256 36.1648C148.18 36.3745 143.234 43.6651 143.957 49.7087L156.162 49.613C156.162 49.613 156.568 37.7644 168.53 37.2194C173.455 43.7876 181.485 49.4765 193.3 49.4174H193.301Z" fill="white"/>
<path d="M269.287 9.15677C267.125 8.46662 266.075 7.56578 266.075 6.00381C266.075 4.44185 267.486 2.97126 269.048 2.97126C270.879 2.97126 272.17 4.17203 272.17 6.18334H275.413C275.352 2.31014 272.71 -0.00109863 269.048 -0.00109863C265.625 -0.00109863 262.833 2.67133 262.833 6.06401C262.833 9.21697 264.034 11.0176 269.528 12.8795C271.094 13.4148 271.867 14.0813 272.332 14.8747C272.663 15.439 272.935 16.0571 272.935 16.7602C272.935 18.1007 271.947 19.6132 270.727 19.9303C268.421 20.5291 266.798 18.7941 264.888 16.6269C263.018 14.5027 255.164 2.63048 253.233 -2.36396e-05H249.744V16.141H249.682L237.96 -2.36396e-05H234.468V23.0586H237.926V5.18789H237.99L251.055 23.0575H252.914V5.30399C252.914 5.30399 260.565 15.8336 263.186 19.2617C264.953 21.574 267.129 23.0575 269.585 23.0575C270.813 23.0822 276.198 22.7673 276.149 16.4592C276.149 12.4806 274.09 10.6876 269.286 9.15569L269.287 9.15677Z" fill="white"/>
<path d="M225.379 29.1709C220.879 29.1709 218.051 31.4424 217.151 35.3414L219.979 36.0702C220.665 33.1559 222.336 31.6563 225.336 31.6563C228.936 31.6563 230.221 33.4988 230.221 36.7991V38.6416H223.365C218.651 38.6416 216.379 41.17 216.379 44.4692C216.379 45.3033 216.494 46.0225 216.715 46.6406L216.149 46.5643C210.468 45.8118 205.249 40.7207 204.474 32.3002C204.193 29.2537 204.352 25.5084 204.352 25.5084H200.967C200.952 27.5703 200.957 30.8866 201.113 32.5034C201.742 39.0351 204.177 44.0768 209.178 47.3265C213.634 50.2225 223.493 49.9957 223.493 49.9957L223.483 49.9892C232.486 50.2032 232.878 43.6844 233.138 40.2939C233.579 34.547 231.665 29.1709 225.379 29.1709ZM230.221 42.1988C230.221 45.241 227.564 47.5125 223.493 47.5125C220.321 47.5125 219.251 45.9268 219.251 44.2133C219.251 41.9848 220.836 40.8281 223.708 40.8281H230.221V42.1998V42.1988Z" fill="white"/>
<path d="M245.095 29.3203C241.079 29.3203 238.839 31.7294 237.866 35.0694H237.856V25.5084H234.469V49.4399H237.614V44.0714H237.825C238.755 47.4533 241.291 49.9043 245.307 49.9043C250.127 49.9043 253.043 46.2687 253.043 39.6328C253.043 32.9968 250.253 29.3193 245.097 29.3193L245.095 29.3203ZM244.08 47.3276C240.148 47.3276 237.613 44.496 237.613 40.396V38.9168C237.613 34.648 240.148 31.9853 244.08 31.9853C248.011 31.9853 250.124 34.4373 250.124 39.636C250.124 44.8347 248.138 47.3286 244.08 47.3286V47.3276Z" fill="white"/>
<path d="M228.014 0L214.115 20.2464L209.775 14.4576C213.015 14.3641 216.38 12.0582 216.38 7.6647C216.38 2.92828 213.919 0 208.373 0H200.988V23.0586H204.353V12.371H204.416L212.019 23.0586H216.3L220.943 16.2657H228.794V23.0586H232.159V0H228.015H228.014ZM204.352 11.9034V3.08523H207.905C210.896 3.08523 213.016 4.73642 213.016 7.3852C213.016 10.3769 210.741 11.9034 206.815 11.9034H204.353H204.352ZM228.793 13.1805H223.06L228.732 4.36232H228.794" fill="white"/>
</g>
</g>
<defs>
<clipPath id="clip0_63_318">
<rect width="276.15" height="50" fill="white"/>
</clipPath>
<clipPath id="clip1_63_318">
<rect width="132.261" height="50.0001" fill="white" transform="translate(143.889)"/>
</clipPath>
</defs>
</svg>
