<svg width="276" height="50" viewBox="0 0 276 50" fill="none" xmlns="http://www.w3.org/2000/svg">
<g clip-path="url(#clip0_64_937)">
<path d="M30.5658 15.269C30.8259 15.2983 30.8519 15.5633 31.0215 15.6844C30.3324 16.3268 29.7151 17.043 28.9855 17.6461C28.889 17.4884 28.752 17.3719 28.6449 17.2248C29.3446 16.631 29.9566 15.9513 30.5658 15.269Z" fill="white"/>
<path d="M32.271 16.7766C32.1699 16.8958 31.9524 16.9424 31.8586 17.0422C31.8313 16.7586 31.6464 16.2641 31.2939 16.3379C31.099 16.3792 30.952 16.5703 30.9307 16.8099C30.8835 17.3504 31.1768 18.0108 30.9134 18.4421C30.7943 18.6358 30.4977 18.8056 30.1438 18.7729C29.7281 18.7343 29.3989 18.3456 29.2751 18.0194C29.2352 17.9156 29.176 17.6992 29.2592 17.5801C29.3337 17.4716 29.5731 17.441 29.7467 17.4975C29.7501 17.6693 29.5931 17.7571 29.5651 17.9282C29.5292 18.1452 29.6895 18.283 29.78 18.4421C30.0261 18.5187 30.2769 18.4321 30.3753 18.2757C30.5788 17.9542 30.4731 17.3884 30.4924 16.9018C30.5103 16.3972 30.654 15.892 31.254 15.9479C31.4967 15.9712 31.7169 16.109 31.8819 16.2461C32.0568 16.3919 32.1912 16.5756 32.271 16.7766Z" fill="white"/>
<path d="M20.083 18.8224C20.0784 18.9036 20.0006 18.9336 20.0298 19.0228C19.5622 19.2038 18.8871 19.1832 18.357 19.305C18.4049 19.3895 18.504 19.4448 18.5971 19.4967C18.8718 19.6511 19.2509 19.7423 19.5163 19.9134C19.527 20.0852 19.3946 20.1178 19.3873 20.2709C18.5406 20.0066 17.9466 19.4974 17.0613 19.2717C17.1624 18.5555 18.3004 18.8424 18.9064 18.614C18.8532 18.5395 18.7408 18.4769 18.6397 18.423C18.3424 18.2599 17.9852 18.1181 17.6626 17.973C17.6805 17.8532 17.7431 17.776 17.7989 17.6901C18.5605 18.0675 19.3414 18.4257 20.083 18.8224Z" fill="white"/>
<path d="M33.1725 19.1301C32.5446 19.3185 32.0604 19.7086 31.6181 20.1565C32.2134 20.0953 32.814 20.046 33.3728 19.9342C33.5996 20.2178 33.7439 20.5613 33.8976 20.8988C33.6282 21.2702 33.3747 21.6669 33.132 22.0763C33.416 22.0018 33.6714 21.7548 33.9401 21.5764C34.01 21.5291 34.155 21.4146 34.2082 21.418C34.3652 21.428 34.3811 21.7142 34.429 21.8227C34.0399 22.0523 33.6435 22.2481 33.253 22.4651C32.8732 22.6754 32.5247 22.9909 32.0438 23.0515C32.2773 22.2714 32.7249 21.7907 33.0615 21.1504C32.4529 21.3461 31.9693 21.7135 31.4112 21.9771C31.3593 21.9359 31.1651 21.7468 31.2157 21.627C31.2396 21.5717 31.4478 21.5225 31.505 21.4972C32.1595 21.2143 32.8114 20.7956 33.3402 20.3902C32.5826 20.3915 31.795 20.506 31.0321 20.5739C30.939 20.5832 30.7714 20.6172 30.7015 20.5972C30.5632 20.5559 30.5139 20.285 30.478 20.1585C30.6895 20.0381 30.9037 19.9402 31.1039 19.8137C31.3008 19.6886 31.4857 19.5495 31.672 19.4017C32.0458 19.1055 32.4016 18.7393 32.7395 18.4398C32.9604 18.6142 33.0748 18.8678 33.1725 19.1301Z" fill="white"/>
<path d="M19.4009 20.8027C19.4022 21.077 19.3051 21.2494 19.1708 21.3832C18.2608 21.0204 17.5744 20.4286 16.6252 20.1044C16.7157 19.9114 16.8195 19.6791 16.9133 19.524C17.772 19.9207 18.5289 20.4206 19.4009 20.8027Z" fill="white"/>
<path d="M16.5861 20.2C16.7903 20.2726 16.9307 20.457 17.0856 20.5562C16.5203 20.5368 16.191 20.889 16.181 21.4155C16.1664 22.1744 16.779 22.7196 17.522 22.6716C17.9424 22.6437 18.2962 22.3841 18.3374 21.9361C18.3641 21.6512 18.2935 21.4468 18.2191 21.2498C18.4193 21.321 18.6102 21.4748 18.7651 21.6219C18.4831 22.3861 18.2603 23.4245 17.1794 23.3486C16.8349 23.3253 16.5036 23.1396 16.2762 22.9279C16.0473 22.7149 15.8591 22.416 15.7933 22.0765C15.7141 21.6738 15.8185 21.2238 15.9901 20.9769C16.0866 20.8417 16.205 20.7365 16.3081 20.6294C16.4285 20.5056 16.509 20.3638 16.5861 20.2Z" fill="white"/>
<path d="M34.8386 22.5926C34.1169 22.9973 33.3812 23.3754 32.6675 23.7961C32.5079 23.7096 32.5285 23.5212 32.3975 23.4167C33.1032 22.996 33.8561 22.5953 34.5086 22.1187C34.7022 22.2298 34.6922 22.4548 34.8386 22.5926Z" fill="white"/>
<path d="M34.9073 22.9139C35.1095 23.0371 35.0955 23.282 35.2299 23.4438C34.8348 23.8166 34.4696 24.2426 34.1078 24.6753C34.745 24.656 35.3882 24.648 35.8458 24.3072C35.9336 24.4609 36.1112 24.5654 36.1106 24.7691C35.1933 24.8137 34.3872 25.0594 33.5571 25.2604C33.3968 25.1239 33.299 24.9508 33.2112 24.7758C33.8211 24.2339 34.2987 23.4591 34.9073 22.9139Z" fill="white"/>
<path d="M17.4171 24.1467C17.3613 24.4689 17.1278 24.6213 16.8285 24.7139C16.2764 23.9537 15.6053 23.3133 14.8157 22.7968C14.9115 22.5598 15.2035 22.5119 15.3093 22.2875C15.9704 22.9505 16.5498 23.6961 17.4171 24.1467Z" fill="white"/>
<path d="M14.4735 23.0879C14.7316 23.0333 14.7841 23.2769 14.999 23.2869C14.9072 23.3748 14.7881 23.4247 14.6817 23.5226C14.6098 23.5878 14.4795 23.7349 14.5021 23.8534C14.5154 23.9226 14.6371 24.0238 14.707 24.093C15.2058 24.591 15.8723 24.9637 16.3725 25.3984C16.3026 25.5875 16.0865 25.6647 16.0379 25.8704C15.3568 25.423 14.7648 24.8472 14.1097 24.364C13.8456 24.5204 13.6567 24.7327 13.5729 25.0236C13.4478 24.9544 13.382 24.8013 13.2809 24.6995C13.5915 24.0957 14.115 23.655 14.4735 23.0879Z" fill="white"/>
<path d="M37.1703 25.9446C36.8431 25.8295 36.9848 25.1938 36.5238 25.233C36.0728 25.2703 35.9977 26.1263 36.591 26.0698C36.4945 26.2641 36.2963 26.356 36.0516 26.4006C36.0795 26.1576 36.017 25.934 35.8454 25.8621C35.6498 25.92 35.4143 26.0531 35.2654 26.2102C35.1942 26.2854 35.107 26.4046 35.0931 26.5171C35.0525 26.8146 35.3405 26.9132 35.5793 26.9804C35.5301 27.1162 35.3319 27.2453 35.1337 27.1541C34.8091 27.005 34.6202 26.4499 34.4293 26.1603C34.8703 26.0332 35.2128 25.691 35.5141 25.3901C35.6452 25.259 35.7895 25.1312 35.9358 25.0087C36.0895 24.8816 36.2538 24.7431 36.4327 24.6945C36.4699 24.6845 36.5478 24.6958 36.5983 24.7198C36.7739 24.7977 36.9003 24.9295 37.0533 25.1079C37.2442 25.3282 37.4916 25.7336 37.1703 25.9446Z" fill="white"/>
<path d="M36.9498 27.6579C36.7815 28.486 37.9049 28.4581 37.9675 27.8643C37.9848 27.6965 37.9335 27.5801 37.8604 27.4915C37.5591 27.5508 37.2185 27.5681 36.9498 27.6579ZM35.9075 29.2069C35.4539 29.2116 35.1665 30.2014 35.7419 30.2587C35.7938 30.2633 35.8383 30.2554 35.8902 30.2414C36.3891 30.1149 36.7762 29.5211 37.3642 29.4792C37.7147 29.4559 38.0293 29.7375 37.9848 30.1016C37.9362 30.5076 37.5843 30.7506 37.4959 31.1194C37.311 31.0628 37.2178 30.913 37.007 30.8797C37.2325 30.7253 37.7041 30.459 37.4147 30.0763C37.0682 30.0989 36.8613 30.2454 36.6192 30.3918C36.401 30.5223 36.1443 30.704 35.8237 30.706C35.3381 30.71 35.0914 30.3479 35.1286 29.7954C35.1459 29.5484 35.239 29.2635 35.3441 29.0658C35.3581 29.0392 35.384 29.0059 35.402 28.966C35.4532 28.8535 35.4539 28.8308 35.6175 28.8342C35.6009 28.6884 35.6933 28.5859 35.708 28.4454C35.9354 28.2038 36.3146 28.1133 36.4942 27.823C36.0725 27.7844 35.7419 27.9082 35.4592 28.0387C35.3222 27.9395 35.4093 27.6147 35.3355 27.4509C36.1869 27.2153 37.3056 27.2026 38.0014 26.8372C38.4238 27.4849 38.4031 28.8768 37.3462 28.7836C37.0815 28.7603 36.9052 28.6052 36.7256 28.486C36.6738 28.4521 36.5886 28.3782 36.5347 28.3709C36.4277 28.3536 36.2607 28.4348 36.1702 28.486C36.0864 28.5346 35.9314 28.6385 35.9148 28.7104C35.9075 28.741 35.9261 28.8069 35.9235 28.8508C35.9122 28.9886 35.833 29.0951 35.9075 29.2069Z" fill="white"/>
<path d="M12.6643 28.5063C12.49 28.6001 12.2625 28.6427 12.1348 28.7799C12.3783 28.7599 12.5286 28.8311 12.7494 28.8345C12.7587 28.688 12.7281 28.5815 12.6643 28.5063ZM14.0731 28.061C14.0219 28.0643 13.9327 28.003 13.8443 27.9964C13.5895 27.9784 13.38 28.1715 13.1751 28.224V28.5429C13.1751 28.6361 13.1439 28.7659 13.1751 28.8617C13.211 28.9816 13.4438 29.0049 13.5895 29.0162C13.7545 29.0295 14.0086 28.9982 14.119 29.0528C14.2294 29.108 14.3664 29.4129 14.413 29.5354C14.4841 29.7264 14.522 29.9142 14.554 30.1545C13.7658 30.2184 13.4126 30.701 12.7494 30.884C13.0993 31.0092 13.6248 30.9133 14.0731 30.9386C14.0538 31.2275 13.8908 31.3753 13.8363 31.6309C14.4223 31.537 14.7748 31.2169 15.2258 30.9939C15.2431 31.1829 15.3907 31.2468 15.404 31.4392C14.4356 31.768 13.6002 32.2273 12.796 32.7146C12.8053 32.5269 12.6044 32.4796 12.6071 32.3225C12.6084 32.2646 12.6989 32.1328 12.7388 32.0682C12.8785 31.8413 13.0926 31.595 13.2204 31.3939C12.8904 31.2422 12.3676 31.2754 11.898 31.2568C11.8541 31.0252 11.7071 30.8947 11.6985 30.6284C12.6483 30.3928 13.3427 29.9108 14.1283 29.5181C13.2669 29.2026 12.1056 29.1706 11.0852 29.0075C11.0852 28.8438 11.0952 28.67 11.036 28.5615C12.0111 28.0843 12.9091 27.4852 13.9866 27.141C14.0877 27.376 14.0897 27.7408 14.0731 28.061Z" fill="white"/>
<path d="M37.6536 31.9448C37.3729 32.7117 36.9519 33.3361 36.6432 34.0736C36.4344 34.0709 36.3067 33.9857 36.171 33.9085C36.1563 33.8819 36.2202 33.8386 36.2541 33.8087C36.3566 33.7161 36.4856 33.607 36.5687 33.4938C36.0313 32.9866 35.2704 32.6997 34.5653 32.3595C34.6039 32.1638 34.7416 32.066 34.7728 31.8623C35.3841 32.2916 36.155 32.5606 36.8494 32.9054C36.9991 32.8321 37.0164 32.6251 37.1075 32.4913C36.5182 32.0367 35.8031 31.7078 35.0715 31.3983C35.0994 31.1806 35.2644 31.1008 35.3183 30.909C36.0798 31.2732 36.7663 31.7092 37.6536 31.9448Z" fill="white"/>
<path d="M16.2022 33.5031C15.3162 33.8053 14.5074 34.1781 13.7444 34.5968C13.5908 34.4211 13.5057 34.1814 13.4511 33.9132C14.2586 33.6635 14.9796 33.3267 15.5969 32.8927C15.5596 32.5366 15.1233 32.5652 14.8399 32.4467C14.9796 32.3402 15.1871 32.2097 15.4545 32.2743C15.9374 32.3875 16.1955 32.9579 16.2022 33.5031Z" fill="white"/>
<path d="M34.9111 34.1458C35.0528 34.1518 35.2603 34.2576 35.3661 34.1458C35.1852 34.1218 35.1632 33.9354 34.961 33.9314C34.9198 33.9787 34.9038 34.0506 34.9111 34.1458ZM36.2434 34.5605C35.539 34.7242 34.7728 34.4873 34.0345 34.5272C34.0165 34.6524 34.1702 34.7216 34.1914 34.8088C33.9227 34.8088 33.7398 34.9452 33.5868 35.1163C33.4478 35.2714 33.2276 35.6482 33.4545 35.8359C33.515 35.8858 33.6653 35.9417 33.811 35.9278C34.1083 35.8971 34.3192 35.5983 34.522 35.3726C34.7222 35.1496 34.9424 34.8927 35.275 34.8587C35.7931 34.8061 36.0805 35.131 36.0379 35.6788C36.012 35.9857 35.7825 36.0682 35.7878 36.4823C35.5982 36.5069 35.4486 36.4423 35.3016 36.3991C35.5829 36.2905 35.827 35.7454 35.5311 35.4798C34.949 35.535 34.7701 35.9823 34.4149 36.2919C34.2699 36.419 34.1269 36.5521 33.8609 36.5322C33.4804 36.5029 33.1212 36.2173 33.0833 35.8705C33.076 35.8079 33.0773 35.7374 33.0833 35.6708C33.1099 35.334 33.3048 35.0458 33.4545 34.7762C33.6128 34.4913 33.7651 34.2217 33.8349 33.8988C33.9394 33.9141 34.0411 33.9547 34.1589 33.972C34.2659 33.9893 34.4203 34.0186 34.522 33.9807C34.6657 33.9288 34.6956 33.5966 34.828 33.5087C34.7143 33.2531 34.4688 33.1293 34.2493 32.9789C34.3092 32.8784 34.3917 32.7565 34.4648 32.6966C34.7641 33.0028 35.0708 33.3037 35.3754 33.6079C35.6767 33.9101 36.0426 34.1611 36.2434 34.5605Z" fill="white"/>
<path d="M15.6237 35.3742C15.5246 35.54 15.333 35.6165 15.2459 35.7943C15.4408 35.7863 15.6124 35.711 15.8232 35.7477C15.7767 35.6039 15.7713 35.4215 15.6237 35.3742ZM16.2476 33.8718C16.4232 33.997 16.4591 34.3058 16.5682 34.4636C16.4791 34.7538 16.1398 34.8017 16.0015 35.0467C16.1146 35.2517 16.205 35.4774 16.3434 35.6571C16.6719 35.7896 16.9912 35.6072 17.2413 35.52C17.216 35.7643 17.3258 35.9221 17.2892 36.149C16.2968 35.9167 15.1029 36.2689 14.0639 36.1025C14.2495 35.5966 14.7643 35.3456 15.1328 34.9921C15.5126 34.626 15.8631 34.2346 16.2476 33.8718Z" fill="white"/>
<path d="M18.7838 16.1147C18.8357 16.4615 18.1898 16.6485 18.4459 17.0386C18.696 17.4207 19.5108 17.0652 19.1749 16.5673C19.3977 16.5573 19.5766 16.6878 19.7343 16.8835C19.5002 16.9774 19.3265 17.1431 19.3432 17.3308C19.4895 17.476 19.7236 17.6191 19.9378 17.6743C20.0403 17.7003 20.1906 17.7196 20.2997 17.6763C20.5897 17.5665 20.5418 17.2616 20.4879 17.0166C20.6356 16.994 20.8471 17.1065 20.8597 17.3268C20.8797 17.6883 20.4653 18.129 20.293 18.4412C19.9664 18.1117 19.4902 17.9765 19.0725 17.8567C18.8909 17.8055 18.7053 17.7402 18.5237 17.6703C18.3341 17.5964 18.1299 17.5186 17.9996 17.3841C17.973 17.3561 17.9464 17.2816 17.943 17.2243C17.9304 17.0306 17.9896 16.8536 18.0787 16.6299C18.1878 16.3523 18.4379 15.9336 18.7838 16.1147Z" fill="white"/>
<path d="M22.162 16.1829C22.1055 16.2501 22.021 16.2275 21.9878 16.3227C21.4763 16.1862 20.9209 15.7429 20.3954 15.5146C20.3814 15.6184 20.4287 15.7282 20.4739 15.8321C20.6049 16.1389 20.8657 16.4565 20.9787 16.772C20.8763 16.9278 20.7433 16.8725 20.6382 17.001C20.0961 16.2388 19.9252 15.4227 19.3245 14.6698C19.8739 14.112 20.6468 15.0772 21.3053 15.2616C21.3087 15.1631 21.2548 15.0379 21.2042 14.9274C21.0592 14.5993 20.8504 14.2505 20.6721 13.9216C20.7652 13.8291 20.8683 13.8018 20.9701 13.7625C21.3679 14.5693 21.7942 15.3721 22.162 16.1829Z" fill="white"/>
<path d="M30.2834 13.8614C30.2262 14.0071 30.0353 14.121 29.9781 14.2454C29.861 13.9858 29.5271 13.5771 29.2171 13.7602C29.0462 13.8627 28.9684 14.091 29.0256 14.3247C29.1546 14.8512 29.6442 15.3824 29.5338 15.875C29.4832 16.0973 29.2571 16.3536 28.9112 16.4368C28.5054 16.534 28.0684 16.2724 27.8469 16.0028C27.7758 15.9176 27.6501 15.7319 27.69 15.5927C27.7259 15.4656 27.9427 15.3598 28.1256 15.3571C28.1835 15.5182 28.0631 15.6527 28.0917 15.8237C28.1276 16.0401 28.3239 16.1193 28.4609 16.2404C28.7183 16.2338 28.9278 16.0714 28.971 15.8916C29.0595 15.5209 28.7781 15.0196 28.6398 14.553C28.4941 14.069 28.4682 13.5445 29.0542 13.4047C29.2916 13.3481 29.5437 13.408 29.7446 13.4846C29.9568 13.5665 30.143 13.6969 30.2834 13.8614Z" fill="white"/>
<path d="M26.6572 43.6809C26.439 43.7068 26.3432 44.0343 26.1437 44.1115C25.8264 44.2334 25.3189 44.1155 24.9823 44.0869C23.7771 43.9811 22.7814 43.9797 21.5801 43.8999C21.4171 44.8438 22.3251 44.7552 23.1592 44.8005C24.7376 44.8864 26.6632 44.913 28.1052 44.9876C27.9901 44.6381 27.8857 44.22 27.9649 43.7541C27.5777 43.8173 27.0456 43.6336 26.6572 43.6809ZM19.4609 42.1505C19.3505 42.3136 19.2674 42.4234 19.2674 42.6524C19.2674 42.9533 19.3239 43.2635 19.5268 43.3806C19.8614 43.575 20.5019 43.5597 21.0107 43.5477C22.6596 43.5078 24.234 43.786 25.8344 43.7627C25.71 43.4266 25.6701 42.946 25.7466 42.4853C23.6707 42.3582 21.4531 42.2557 19.3612 42.1452C19.3492 42.1478 19.3798 42.1012 19.3725 42.1086M25.7532 41.8549C25.3834 41.8549 25.0269 41.837 24.667 41.8217C23.7179 41.7804 22.7754 41.7085 21.8408 41.6639C21.3619 41.6413 20.8923 41.5674 20.4227 41.5887C20.2212 41.5987 19.9851 41.6359 19.85 41.7218C19.8128 41.7471 19.7549 41.7804 19.7589 41.8303C21.7776 41.9328 23.797 42.038 25.7692 42.1864C25.8151 42.1492 25.8304 42.1066 25.8776 42.07C25.9421 42.0234 26.0366 42.0014 26.0599 41.9129C25.9874 41.8183 25.8523 41.8549 25.7532 41.8549ZM28.4311 43.5304C28.3466 43.6163 28.1777 43.7541 28.1504 43.8379C28.0939 44.003 28.1511 44.2373 28.183 44.3944C28.2203 44.5742 28.2203 44.8225 28.2728 44.9696C28.7258 44.6328 29.1395 44.1082 29.5346 43.7141C29.9297 43.3167 30.3993 42.8261 30.7731 42.4061C30.6441 42.1565 30.6993 41.6792 30.676 41.3224C30.0268 41.9748 29.1102 42.8521 28.4311 43.5304ZM28.9779 41.2405C28.9699 41.2419 28.9699 41.2538 28.9712 41.2658C28.928 41.5175 28.7018 41.6512 28.5316 41.8217C28.2236 42.1299 27.9409 42.4234 27.6602 42.7256C27.5139 42.8854 27.3769 43.0565 27.2378 43.1909C27.2079 43.2202 27.1234 43.2548 27.1381 43.2821C27.3549 43.2994 27.587 43.3028 27.7932 43.3161C27.8651 43.3194 27.9622 43.342 28.0088 43.3314C28.062 43.3201 28.1897 43.1756 28.2575 43.1077C28.6679 42.697 29.0464 42.3016 29.4441 41.9049C29.6523 41.6945 29.8319 41.4888 30.0561 41.3404C29.6982 41.3064 29.3477 41.2638 28.9779 41.2405ZM28.4398 40.3006C28.0593 40.694 27.464 41.3624 27.0563 41.7717C26.9977 41.8296 26.9139 41.9248 26.8647 41.9375C26.7796 41.9601 26.6991 41.9488 26.6326 41.9621C25.9721 42.0979 25.7007 43.0884 26.0366 43.7275C26.8873 42.9852 27.895 42.052 28.616 41.1813C28.4956 41.0109 28.5189 40.5116 28.4398 40.3006ZM20.1241 40.9403C20.3642 41.383 20.9602 41.3404 21.6579 41.3404C22.2319 41.3404 22.7847 41.377 23.2909 41.4056C24.4349 41.4735 25.5657 41.5314 26.6 41.5867C26.455 41.2392 26.4117 40.7779 26.4503 40.3006C24.3298 40.24 22.353 40.0623 20.2651 39.9705C20.0888 40.1721 20.0276 40.258 20.0536 40.6348M29.1089 37.9395C29.1089 37.9335 29.3218 37.7178 29.1528 37.8863C28.767 38.2737 28.213 38.8541 27.7766 39.2901C27.5857 39.4825 27.3443 39.6583 27.1221 39.8553C26.9199 40.0344 26.6525 40.282 26.6246 40.5855C26.5913 40.9277 26.7077 41.2412 26.7589 41.5334C27.6117 40.7939 28.5588 39.7475 29.3118 38.9081C29.1195 38.725 29.3237 38.0926 29.2107 37.8303M23.8163 37.5667C24.0385 37.5667 24.1123 37.5814 23.3414 38.0706C22.5379 38.5799 21.6566 39.0612 20.9036 39.6137C20.8877 39.625 20.8471 39.6336 20.8538 39.6649C22.6377 39.7202 24.3744 39.9045 26.1683 39.9545C26.2927 39.9585 26.447 39.9918 26.5335 39.9705C26.6026 39.9545 26.7423 39.7814 26.8161 39.7135C26.9159 39.6203 27.007 39.5338 27.0968 39.4486C27.6496 38.9287 28.1857 38.4474 28.6732 37.8883C28.6852 37.8729 28.7351 37.8144 28.7052 37.8144C27.5598 37.8044 24.9571 37.7924 23.944 37.5767C23.9341 37.5747 24.2586 37.592 24.26 37.6034M29.6264 37.5488C29.4162 37.9162 29.3118 38.7583 29.6264 39.0924C29.3045 39.6216 28.5874 39.836 28.6879 40.7353C29.4328 40.8797 30.3068 40.8971 31.119 40.9756C31.1316 41.0202 31.0871 41.0581 31.0684 41.0994C30.9021 41.4695 30.8064 42.2397 31.1356 42.5273C30.3255 43.4292 29.4428 44.3192 28.5655 45.1986C28.5083 45.2538 28.4231 45.353 28.3826 45.3643C28.2702 45.3949 28.0274 45.3543 27.8591 45.3477C26.6292 45.2984 25.4865 45.2299 24.2779 45.1739C23.6547 45.1446 22.9024 45.1327 22.2386 45.0661C21.5123 44.9929 20.897 44.7506 21.036 43.8952C20.4713 43.8133 19.9212 43.8686 19.4603 43.7388C18.994 43.6056 18.7492 43.2655 18.7812 42.6923C18.8011 42.3309 18.9494 41.9688 19.1876 41.789C19.3831 41.6399 19.6392 41.5834 19.8254 41.4149C19.4403 41.0781 19.4649 40.1262 19.7589 39.7388C19.9372 39.5038 20.3137 39.3274 20.5977 39.1743C21.497 38.6904 22.6304 37.8896 23.4738 37.3957" fill="white"/>
<path d="M25.6555 30.3286C25.8836 31.1494 26.0765 31.3977 25.7859 31.8936C25.1194 33.0299 25.601 31.2279 25.3728 30.4072C25.1447 29.5864 24.8952 28.7849 25.0516 28.7417C25.2072 28.6984 25.4274 29.5078 25.6555 30.3286Z" fill="white"/>
<path d="M24.0581 29.5774C23.8366 29.664 23.7581 29.9802 23.8672 30.1919C23.9111 30.2771 23.9809 30.347 24.0282 30.4302C24.1313 30.6119 24.1153 30.8475 24.0149 31.0306C23.9144 31.2136 23.7388 31.3481 23.5466 31.43C23.2825 31.5432 22.9879 31.5638 22.7178 31.6616C22.4478 31.7588 22.1831 31.9745 22.1711 32.2621C22.2615 32.2607 22.3513 32.2248 22.4172 32.1629C22.4431 32.2993 22.4691 32.4358 22.4943 32.5723C22.5954 32.3326 22.8016 32.1403 23.0477 32.057C23.234 31.9938 23.4349 31.9918 23.6291 31.9565C24.1107 31.8693 24.5882 31.4859 24.5749 30.996C24.5703 30.8382 24.5164 30.6871 24.4632 30.5387C24.41 30.3902 24.3561 30.2411 24.3029 30.0927C24.3095 29.8297 24.6833 30.0274 24.8583 30.1266C25.0332 30.2251 25.3458 30.311 25.3299 30.2524C25.3226 30.2258 25.3093 30.1812 25.3013 30.1512C25.2933 30.1226 25.2753 29.9828 25.254 29.9622C25.0026 29.7112 24.5097 29.401 24.0581 29.5774Z" fill="white"/>
<path d="M25.5256 29.8633C25.6486 29.8141 25.5216 29.8647 25.6546 29.8114C25.924 29.7029 26.236 29.5904 26.492 29.7269C26.6557 29.8141 26.7554 29.9838 26.8466 30.1456C26.9676 30.3599 27.0893 30.5776 27.1552 30.8146C27.2303 31.0855 27.2343 31.3857 27.392 31.6187C27.4345 31.6806 27.4864 31.7358 27.5343 31.7937C27.8217 32.1379 27.9793 32.5885 27.9687 33.0372C27.8556 32.9394 27.7299 32.8555 27.5955 32.7896C27.6115 32.9347 27.5536 33.0858 27.4439 33.183C27.4618 32.7929 27.3215 32.3975 27.0607 32.1059C26.9949 32.0321 26.9204 31.9635 26.8678 31.879C26.81 31.7858 26.7814 31.6773 26.7528 31.5707C26.7075 31.399 26.6623 31.2266 26.6171 31.0549C26.5619 30.8438 26.5047 30.6288 26.381 30.4498C26.2572 30.2707 26.0524 30.1323 25.8355 30.1489C25.6779 30.1609 25.7777 30.2048 25.62 30.1995" fill="white"/>
<path d="M16.1655 8.71958C16.5486 8.86802 17.3734 8.82808 17.6833 8.38341C17.68 8.37609 17.686 8.3741 17.6847 8.36811C17.253 8.36944 16.5865 8.32284 16.1655 8.71958ZM18.0977 8.13446C18.0751 8.62438 17.5024 8.99383 16.9025 9.06905C16.4322 9.12563 15.9732 9.04974 15.6779 8.78614C15.9393 8.29821 16.6869 8.10649 17.2517 8.08054C17.5583 8.0659 17.8882 8.0872 18.0977 8.13446Z" fill="white"/>
<path d="M20.0171 8.01642C19.6659 7.80341 18.8464 7.69757 18.4633 8.08099C18.4653 8.08831 18.4593 8.08964 18.4593 8.09563C18.885 8.17019 19.5322 8.33327 20.0171 8.01642ZM18.0117 8.2534C18.1201 7.77545 18.7486 7.51185 19.3519 7.54313C19.8255 7.56977 20.2638 7.72486 20.508 8.03639C20.1654 8.47107 19.3952 8.52898 18.8351 8.45509C18.5311 8.41582 18.2092 8.3366 18.0117 8.2534Z" fill="white"/>
<path d="M33.9213 8.65012C33.5003 8.25339 32.8338 8.29998 32.4021 8.29864C32.4008 8.30464 32.4068 8.30664 32.4035 8.31396C32.7134 8.75862 33.5382 8.79856 33.9213 8.65012ZM31.9891 8.065C32.1986 8.01774 32.5285 7.99644 32.8351 8.01109C33.3999 8.03704 34.1475 8.22875 34.4089 8.71669C34.1136 8.98028 33.6546 9.05617 33.1843 8.99959C32.5844 8.92437 32.0117 8.55492 31.9891 8.065Z" fill="white"/>
<path d="M30.0697 7.94708C30.5546 8.26328 31.2018 8.10086 31.6275 8.0263C31.6275 8.0203 31.6215 8.01897 31.6235 8.01165C31.2403 7.62823 30.4209 7.73408 30.0697 7.94708ZM32.0751 8.18406C31.8775 8.26727 31.5556 8.34649 31.2516 8.38575C30.6916 8.45965 29.9213 8.40173 29.5788 7.96705C29.8229 7.65552 30.2612 7.50043 30.7348 7.47379C31.3381 7.44252 31.9667 7.70611 32.0751 8.18406Z" fill="white"/>
<path d="M25.6753 23.1206C26.1808 22.7538 26.8127 21.6682 26.502 20.9046C26.4907 20.902 26.4927 20.8933 26.4841 20.89C26.1289 21.4425 25.5183 22.2539 25.6753 23.1206ZM26.528 20.1691C27.1333 20.6031 27.1313 21.6402 26.7302 22.4683C26.4136 23.116 25.9373 23.6392 25.3567 23.7976C24.9502 23.0601 25.3247 21.9471 25.7591 21.2042C25.9939 20.8015 26.2945 20.3974 26.528 20.1691Z" fill="white"/>
<path d="M24.5066 23.4679C24.5332 23.5018 24.5725 23.5684 24.5897 23.5411C24.5126 22.5093 24.2924 21.6446 23.7843 21.1094C23.7743 22.1119 24.0789 22.9367 24.5066 23.4679ZM25.0121 24.688C24.9729 24.72 24.905 24.6348 24.8578 24.5975C24.1235 24.0051 23.4304 22.9247 23.3333 21.6287C23.3007 21.17 23.3725 20.6162 23.5095 20.2913C24.7647 20.8172 25.211 22.8701 25.0121 24.688Z" fill="white"/>
<path d="M24.5773 28.3179C24.5341 27.1723 24.0877 26.3675 23.2749 26.1305C23.4033 27.2482 23.9946 27.7767 24.5773 28.3179ZM23.2397 23.4293C23.2383 23.4193 23.227 23.4233 23.2304 23.4399C23.3069 24.1668 23.4372 24.8438 23.7226 25.2958C23.815 25.4436 23.9248 25.5854 24.0724 25.6539C24.0764 24.6987 23.7811 23.8254 23.2397 23.4293ZM24.2826 26.3256C24.8134 26.8448 25.1167 28.1781 24.8966 29.0608C24.7602 28.9949 24.6451 28.8784 24.5201 28.7805C24.1503 28.489 23.7931 28.1555 23.4971 27.7588C23.1426 27.2855 22.7634 26.3988 23.0395 25.6479C23.2709 25.6127 23.3767 25.7338 23.547 25.7731C23.0654 25.0861 22.7608 23.8001 22.8153 22.6804C22.8233 22.6778 22.8246 22.6831 22.8253 22.6884C23.4472 22.8781 23.8716 23.4013 24.1516 24.0643C24.4276 24.7207 24.548 25.7265 24.2826 26.3256Z" fill="white"/>
<path d="M26.7616 25.8427C26.0918 26.091 25.6255 27.2386 25.7612 28.1659C26.1709 27.5428 26.7735 26.9071 26.7802 25.8554C26.7809 25.8494 26.7808 25.8434 26.7722 25.8447L26.7616 25.8427ZM26.1416 25.251C26.5234 24.7125 27.1806 24.0222 27.0682 23.1461C27.0695 23.1408 27.0695 23.1342 27.0582 23.1342C26.6345 23.5961 26.0585 24.353 26.1416 25.251ZM27.2943 22.4379L27.3143 22.4419C27.5059 22.6789 27.6123 22.9658 27.5704 23.3452C27.4719 24.2412 26.9624 24.8669 26.5893 25.3974C26.8687 25.432 27.0123 25.2676 27.295 25.3056C27.2997 27.0716 26.2893 28.3463 25.3601 29.1398C25.2809 28.6565 25.2257 28.1959 25.2703 27.684C25.2929 27.3977 25.3448 27.1015 25.4419 26.8579C25.531 26.6375 25.6847 26.4505 25.7505 26.2162C25.8942 25.7136 25.6428 25.2749 25.6953 24.7983C25.7559 24.2345 26.0139 23.7406 26.2986 23.3645C26.5846 22.9857 26.9252 22.6922 27.2943 22.4379Z" fill="white"/>
<path d="M25.1091 20.9576C25.4782 20.2473 25.8973 18.7935 25.3645 18.1079C24.9228 18.7516 24.6515 20.2833 25.1091 20.9576ZM25.2494 17.3331C25.9864 17.6519 26.2272 18.4121 26.1487 19.3334C26.0529 20.4284 25.5886 21.3171 25.1463 21.9834C23.9291 21.2046 24.2111 18.2118 25.2494 17.3331Z" fill="white"/>
<path d="M27.6558 11.9128C27.9425 23.7349 28.913 33.427 30.478 33.427" stroke="white" stroke-width="0.753068" stroke-linecap="round"/>
<path d="M22.6852 11.9257C22.3985 23.7479 21.6908 33.4266 20.1257 33.4266" stroke="white" stroke-width="0.753068" stroke-linecap="round"/>
<path d="M20.0428 33.4444C20.3281 34.0056 22.4593 34.5907 25.1611 34.5907" stroke="white" stroke-width="0.68023" stroke-linecap="round"/>
<path d="M30.4781 33.4269C30.1948 34.0053 27.8727 34.5845 25.1709 34.5845" stroke="white" stroke-width="0.68023" stroke-linecap="round"/>
<path d="M22.6852 11.9258C22.6852 11.9185 24.7658 11.549 27.3832 11.9131" stroke="white" stroke-width="0.778993" stroke-linecap="round"/>
<path d="M22.5561 11.9369C23.3083 11.7744 21.1346 12.2278 20.4908 12.6158C19.8463 13.0039 19.3813 13.4666 18.9104 14.053C18.3364 14.7686 17.5808 15.4655 17.1697 16.2856C16.6456 17.3321 16.2591 18.4723 15.6911 19.4955C15.2973 20.2031 14.7825 20.8341 14.2876 21.4745C13.4914 22.5056 12.7418 23.5726 12.0321 24.6657C11.18 25.9783 10.3646 27.3969 10.2655 28.9592C10.167 30.5102 10.7896 32.0172 11.5492 33.3719C12.0075 34.188 12.5283 34.9967 12.7039 35.9167C12.8802 36.842 12.6753 37.8345 12.1472 38.614C12.0627 38.7384 11.9662 38.8702 11.9689 39.0207C11.9742 39.3588 12.4179 39.4727 12.7558 39.486C14.2916 39.5459 15.8281 39.6051 17.3646 39.665C17.9772 38.5773 18.6104 37.3865 18.4381 36.1497C18.3537 35.5473 18.0829 34.9901 17.8156 34.4449C17.3513 33.4983 16.8877 32.5524 16.4241 31.6065C15.9977 30.7372 15.5614 29.8212 15.6046 28.8547C15.6385 28.0972 15.9678 27.3816 16.3828 26.7479C17.4271 25.1549 19.0354 23.9534 19.8655 22.24C20.5127 20.9047 21.2018 18.6447 22.417 18.0024" stroke="white" stroke-width="0.753068"/>
<path d="M27.1827 11.9519C27.8572 11.7967 28.9999 12.1296 29.6445 12.517C30.2883 12.9051 30.8577 13.2998 31.3286 13.8863C31.9026 14.6012 32.4487 15.3461 32.8598 16.1662C33.3839 17.2119 33.6806 18.3642 34.2486 19.3873C34.6417 20.0949 35.1572 20.726 35.6521 21.3663C36.4482 22.3981 37.1979 23.4645 37.9076 24.5575C38.7596 25.8709 39.5751 27.2887 39.6742 28.851C39.7727 30.402 39.1501 31.9091 38.3898 33.2637C37.9322 34.0805 37.4107 34.8893 37.2358 35.8085C37.0595 36.7338 37.2644 37.7263 37.7925 38.5058C37.877 38.6303 37.9734 38.7621 37.9708 38.9125C37.9655 39.2507 37.5218 39.3645 37.1839 39.3778C35.6474 39.4377 34.1116 39.4976 32.5751 39.5569C31.9625 38.4692 31.3293 37.2783 31.5015 36.0415C31.586 35.4398 31.8567 34.8826 32.1241 34.3368C32.5877 33.3902 33.052 32.4443 33.5156 31.4984C33.9413 30.629 34.3776 29.7131 34.3351 28.7465C34.3012 27.989 33.9719 27.2734 33.5562 26.6397C32.5126 25.0474 30.9042 23.8453 30.0735 22.1318C29.4269 20.7965 29.2261 19.1304 28.0368 18.2444" stroke="white" stroke-width="0.753068"/>
<path d="M21.004 7.89978C22.3682 7.69742 23.4837 7.64417 25.118 7.64417C26.693 7.64417 27.8098 7.69942 29.1368 7.88846" stroke="white" stroke-width="0.231481" stroke-linecap="round"/>
<path fill-rule="evenodd" clip-rule="evenodd" d="M28.9051 28.2766L28.5632 26.3861L34.0886 30.0659L33.5724 31.2667L28.9051 28.2766Z" stroke="white" stroke-width="0.376534"/>
<path fill-rule="evenodd" clip-rule="evenodd" d="M38.1304 34.1872L38.6433 33.0995L44.8956 37.2633L44.317 38.1512L38.1304 34.1872Z" stroke="white" stroke-width="0.313572"/>
<path fill-rule="evenodd" clip-rule="evenodd" d="M21.6393 28.3302L21.7463 26.5789L15.9103 30.4657L16.4238 31.606L21.6393 28.3302Z" stroke="white" stroke-width="0.376534"/>
<path fill-rule="evenodd" clip-rule="evenodd" d="M5.82001 38.4586L5.24133 37.5713L11.4638 33.4269L12.0179 34.4879L5.82001 38.4586Z" stroke="white" stroke-width="0.313572"/>
<path fill-rule="evenodd" clip-rule="evenodd" d="M28.2526 24.0872L28.1036 22.3451L29.676 21.2974L30.3345 22.7532L28.2526 24.0872Z" stroke="white" stroke-width="0.501839"/>
<path fill-rule="evenodd" clip-rule="evenodd" d="M19.7725 22.4241L20.4303 20.9703L22.1657 22.1259L22.0805 23.8719L19.7725 22.4241Z" stroke="white" stroke-width="0.501839"/>
<path d="M16.2513 18.3492L15.4145 19.6871L13.6732 18.5954L12.9927 18.4676C12.8996 18.4497 12.8098 18.4177 12.7273 18.3711L10.549 17.1516L7.12344 17.2561L6.59332 16.9533C6.35586 16.8181 6.24212 16.5372 6.31928 16.2749L6.75428 14.7852C6.83676 14.503 6.77224 14.1974 6.58135 13.9731L5.07678 12.2018" stroke="white" stroke-width="0.501839" stroke-linecap="round"/>
<path d="M15.377 19.8962L16.251 18.5822L14.5402 17.4433L14.1432 16.8755C14.0893 16.7976 14.0228 16.7297 13.9469 16.6731L11.9395 15.1887L10.6245 12.0208L10.131 11.662C9.91015 11.5009 9.60751 11.5129 9.40065 11.6906L8.22267 12.7011C7.99918 12.8928 7.69454 12.9594 7.41186 12.8775L5.17896 12.2345" stroke="white" stroke-width="0.501839" stroke-linecap="round"/>
<path d="M33.7215 18.3492L34.5583 19.6871L36.2996 18.5954L36.9801 18.4676C37.0732 18.4497 37.163 18.4177 37.2455 18.3711L39.4238 17.1516L42.8493 17.2561L43.3794 16.9533C43.6169 16.8181 43.7306 16.5372 43.6535 16.2749L43.2185 14.7852C43.136 14.503 43.2005 14.1974 43.3914 13.9731L44.896 12.2018" stroke="white" stroke-width="0.501839" stroke-linecap="round"/>
<path d="M34.5959 19.8962L33.7219 18.5822L35.4326 17.4433L35.8297 16.8755C35.8836 16.7976 35.9501 16.7297 36.0259 16.6731L38.0334 15.1887L39.3483 12.0208L39.8419 11.662C40.0627 11.5009 40.3654 11.5129 40.5722 11.6906L41.7502 12.7011C41.9737 12.8928 42.2783 12.9594 42.561 12.8775L44.7939 12.2345" stroke="white" stroke-width="0.501839" stroke-linecap="round"/>
<path fill-rule="evenodd" clip-rule="evenodd" d="M49.0793 25.0209C49.0793 38.3281 38.2999 49.1158 25.0029 49.1158C11.7053 49.1158 0.925903 38.3281 0.925903 25.0209C0.925903 11.7136 11.7053 0.925849 25.0029 0.925849C38.2999 0.925849 49.0793 11.7136 49.0793 25.0209Z" stroke="white" stroke-width="1.25491"/>
<path d="M6.21293 36.8857C4.03923 33.4543 2.78143 29.3844 2.78143 25.021C2.78143 20.77 3.97537 16.7987 6.04598 13.4238C6.0646 13.3938 6.08256 13.3639 6.10119 13.3346" stroke="white" stroke-width="0.483938"/>
<path d="M43.3243 37.4605C39.3368 43.3462 32.5981 47.2137 24.9569 47.2137C17.4747 47.2137 10.8578 43.5053 6.84163 37.8246C6.83365 37.8133 6.825 37.8013 6.81702 37.79" stroke="white" stroke-width="0.483938"/>
<path d="M43.8162 13.3402C43.8388 13.3775 43.8621 13.4141 43.8847 13.4514C45.9454 16.8203 47.1327 20.7817 47.1327 25.0206C47.1327 29.2343 45.9593 33.173 43.922 36.5286C43.91 36.5492 43.8974 36.5699 43.8847 36.5898" stroke="white" stroke-width="0.483938"/>
<path d="M6.61981 12.5368C10.6114 6.67628 17.3353 2.82808 24.9566 2.82808C32.6011 2.82808 39.3424 6.69891 43.3293 12.5894" stroke="white" stroke-width="0.483938"/>
<path d="M15.6136 11.704V7.91702" stroke="white" stroke-width="0.624676"/>
<path d="M19.4427 13.8566C17.0122 13.4518 15.4604 12.6065 15.6134 11.7038C15.8309 10.4244 19.8817 9.55173 25.1124 9.55173C30.3438 9.55173 34.745 10.4404 34.7146 11.7038C34.6905 12.7076 33.4187 13.4652 30.9304 13.8566" stroke="white" stroke-width="0.624676"/>
<path d="M34.6909 7.96411C34.6909 7.08411 30.3581 6.17614 25.1972 6.13687" stroke="white" stroke-width="0.624676"/>
<path d="M34.6909 11.4891V7.94914" stroke="white" stroke-width="0.624676"/>
<path d="M15.6136 7.97131C15.6136 7.09131 20.1579 6.10613 25.2902 6.13675" stroke="white" stroke-width="0.624676"/>
<path d="M62.7251 27.9441C62.7251 29.3427 62.7251 30.8657 64.0474 31.9887C64.7205 32.5632 65.8686 32.9379 66.7911 32.9379C67.7144 32.9379 68.8624 32.5632 69.5355 31.9887C70.8579 30.8657 70.8579 29.3427 70.8579 27.9441V17.7329H72.7036V28.444C72.7036 29.8419 72.554 31.1899 71.656 32.4387C70.6583 33.8113 68.9116 34.6853 66.7911 34.6853C64.6706 34.6853 62.9246 33.8113 61.9269 32.4387C61.029 31.1899 60.8793 29.8419 60.8793 28.444V17.7329H62.7251V27.9441Z" fill="white"/>
<path d="M76.9923 34.3857V17.0345L89.9647 30.6406V17.7328L91.8104 17.7328V35.1345L78.8381 21.5284V34.3857H76.9923Z" fill="white"/>
<path d="M97.9444 34.3857H96.0987V17.7329H97.9444V34.3857Z" fill="white"/>
<path d="M102.334 17.733L107.024 30.4412L111.714 17.733H113.76L107.024 35.3844L100.288 17.733H102.334Z" fill="white"/>
<path d="M124.734 19.481H117.948V24.4242H124.535V26.1723H117.948V32.6385H124.734V34.3859H116.103V17.733H124.734V19.481Z" fill="white"/>
<path d="M130.794 17.7329C131.916 17.7329 133.588 17.8074 134.835 18.6568C135.808 19.3058 136.657 20.5799 136.657 22.3519C136.657 24.8987 134.985 26.7706 132.465 26.9456L137.754 34.3857H135.509L130.445 27.0961H129.971V34.3857H128.125V17.7329H130.794ZM129.971 25.4479H131.144C133.438 25.4479 134.811 24.3495 134.811 22.4018C134.811 21.4779 134.536 20.5539 133.489 19.9548C132.74 19.5308 131.892 19.4809 131.094 19.4809H129.971V25.4479Z" fill="white"/>
<path d="M148.081 21.0288C147.856 20.5795 147.482 20.0796 147.107 19.7807C146.784 19.5311 146.184 19.2062 145.236 19.2062C143.59 19.2062 142.442 20.23 142.442 21.7777C142.442 22.4274 142.617 22.8015 143.066 23.2262C143.565 23.7254 144.189 23.9997 144.813 24.2746L146.409 24.9735C147.382 25.3976 148.28 25.8469 148.979 26.5465C149.827 27.3945 150.176 28.3684 150.176 29.5673C150.176 32.638 147.906 34.6855 144.912 34.6855C143.814 34.6855 142.442 34.4606 141.295 33.3369C140.472 32.5381 139.973 31.3892 139.748 30.3907L141.544 29.8914C141.669 30.7655 142.068 31.515 142.543 32.0142C143.266 32.7378 144.089 32.9382 144.937 32.9382C147.208 32.9382 148.28 31.3146 148.28 29.6418C148.28 28.893 148.055 28.2439 147.457 27.6948C146.983 27.2454 146.335 26.9459 145.461 26.5465L143.965 25.8469C143.315 25.5473 142.493 25.1985 141.744 24.4743C141.021 23.7753 140.596 23.0012 140.596 21.7531C140.596 19.1816 142.567 17.4589 145.262 17.4589C146.285 17.4589 147.107 17.6586 147.931 18.2077C148.605 18.6571 149.178 19.3307 149.553 20.0549L148.081 21.0288Z" fill="white"/>
<path d="M155.413 34.3857H153.567V17.7329H155.413V34.3857Z" fill="white"/>
<path d="M163.794 19.481V34.3859H161.948V19.481H157.906V17.733H167.835V19.481H163.794Z" fill="white"/>
<path d="M178.386 29.6922H171.301L169.306 34.3857H167.26L174.919 16.9341L182.378 34.3857H180.332L178.386 29.6922ZM171.251 13.4886L172.997 12.3656L176.141 15.6114L175.068 16.4102L171.251 13.4886ZM177.662 27.9441L174.868 21.2782L172.025 27.9441H177.662Z" fill="white"/>
<path d="M190.531 17.7327H193.924C195.595 17.7327 197.965 17.9078 200.061 19.6805C201.583 20.9539 202.905 23.076 202.905 26.0722C202.905 29.5676 201.184 31.4394 199.986 32.4632C198.464 33.7612 196.868 34.3856 193.899 34.3856H190.531V17.7327ZM192.377 32.6383H193.999C195.321 32.6383 197.142 32.4878 198.764 31.1398C200.011 30.0914 201.009 28.4439 201.009 26.0722C201.009 22.0775 198.215 19.4808 193.999 19.4808H192.377V32.6383Z" fill="white"/>
<path d="M208.141 34.3857H206.295V17.7329H208.141V34.3857Z" fill="white"/>
<path d="M221.261 17.7329C222.931 17.7329 224.329 17.9332 225.451 18.9064C226.674 19.9548 226.974 21.428 226.974 22.4764C226.974 24.8242 225.502 27.1453 221.71 27.1453H220.088V34.3857H218.242V17.7329H221.261ZM220.088 25.398H221.61C223.805 25.398 225.127 24.2996 225.127 22.3772C225.127 19.7305 222.657 19.4809 221.46 19.4809H220.088V25.398Z" fill="white"/>
<path d="M237.499 29.6922H230.415L228.42 34.3857H226.373L234.032 16.9341L241.491 34.3857H239.446L237.499 29.6922ZM236.776 27.9441L233.982 21.2782L231.138 27.9441H236.776Z" fill="white"/>
<path d="M242.637 17.733L247.327 30.4412L252.017 17.733H254.063L247.327 35.3844L240.591 17.733H242.637Z" fill="white"/>
<path d="M258.252 34.3857H256.406V17.7329H258.252V34.3857Z" fill="white"/>
<path d="M271.721 29.6922H264.637L262.642 34.3857H260.595L268.254 16.9341L275.713 34.3857H273.668L271.721 29.6922ZM270.998 27.9441L268.204 21.2782L265.36 27.9441H270.998Z" fill="white"/>
</g>
<defs>
<clipPath id="clip0_64_937">
<rect width="275.926" height="50" fill="white"/>
</clipPath>
</defs>
</svg>
