<svg width="277" height="50" viewBox="0 0 277 50" fill="none" xmlns="http://www.w3.org/2000/svg">
<g clip-path="url(#clip0_63_305)">
<path d="M30.5911 15.2692C30.8514 15.2985 30.8774 15.5634 31.0471 15.6845C30.3575 16.3269 29.7397 17.0431 29.0094 17.6462C28.9129 17.4885 28.7758 17.372 28.6686 17.2249C29.3689 16.6311 29.9813 15.9515 30.5911 15.2692Z" fill="white"/>
<path d="M32.2976 16.7767C32.1964 16.8959 31.9787 16.9425 31.8849 17.0423C31.8576 16.7588 31.6725 16.2642 31.3197 16.3381C31.1246 16.3793 30.9775 16.5704 30.9562 16.81C30.909 17.3505 31.2025 18.0109 30.9389 18.4422C30.8198 18.6359 30.5229 18.8057 30.1687 18.7731C29.7526 18.7344 29.4231 18.3457 29.2993 18.0195C29.2594 17.9157 29.2001 17.6993 29.2833 17.5802C29.3579 17.4717 29.5975 17.4411 29.7713 17.4976C29.7746 17.6694 29.6175 17.7573 29.5895 17.9283C29.5536 18.1453 29.714 18.2831 29.8046 18.4422C30.0509 18.5188 30.3018 18.4322 30.4004 18.2758C30.6041 17.9543 30.4982 17.3885 30.5175 16.9019C30.5355 16.3973 30.6793 15.8921 31.2798 15.948C31.5227 15.9713 31.7431 16.1091 31.9082 16.2462C32.0832 16.392 32.2177 16.5757 32.2976 16.7767Z" fill="white"/>
<path d="M20.0997 18.8225C20.095 18.9037 20.0172 18.9337 20.0464 19.0229C19.5785 19.2039 18.9028 19.1833 18.3722 19.3051C18.4201 19.3897 18.5193 19.4449 18.6125 19.4968C18.8875 19.6513 19.2669 19.7425 19.5325 19.9135C19.5432 20.0853 19.4107 20.1179 19.4034 20.271C18.556 20.0067 17.9615 19.4975 17.0754 19.2718C17.1766 18.5556 18.3156 18.8425 18.9221 18.6142C18.8688 18.5396 18.7563 18.477 18.6551 18.4231C18.3576 18.26 18.0001 18.1183 17.6772 17.9731C17.6952 17.8533 17.7578 17.7761 17.8137 17.6902C18.5759 18.0677 19.3574 18.4258 20.0997 18.8225Z" fill="white"/>
<path d="M33.1999 19.1302C32.5715 19.3186 32.0869 19.7087 31.6442 20.1567C32.24 20.0954 32.8411 20.0462 33.4003 19.9343C33.6273 20.2179 33.7717 20.5614 33.9255 20.8989C33.6559 21.2703 33.4023 21.6671 33.1593 22.0764C33.4436 22.0019 33.6992 21.7549 33.9681 21.5765C34.038 21.5293 34.1831 21.4148 34.2364 21.4181C34.3935 21.4281 34.4095 21.7143 34.4574 21.8228C34.068 22.0525 33.6712 22.2482 33.2805 22.4652C32.9003 22.6755 32.5515 22.9911 32.0702 23.0516C32.3039 22.2715 32.7519 21.7909 33.0887 21.1505C32.4796 21.3462 31.9957 21.7136 31.4371 21.9772C31.3852 21.936 31.1908 21.7469 31.2414 21.6271C31.2654 21.5719 31.4738 21.5226 31.531 21.4973C32.1861 21.2144 32.8384 20.7957 33.3677 20.3903C32.6094 20.3916 31.8213 20.5061 31.0577 20.574C30.9645 20.5834 30.7967 20.6173 30.7268 20.5973C30.5884 20.5561 30.5391 20.2851 30.5032 20.1587C30.7149 20.0382 30.9292 19.9403 31.1296 19.8138C31.3266 19.6887 31.5117 19.5496 31.6981 19.4018C32.0722 19.1056 32.4284 18.7395 32.7665 18.4399C32.9876 18.6143 33.1021 18.8679 33.1999 19.1302Z" fill="white"/>
<path d="M19.417 20.8027C19.4183 21.077 19.3211 21.2494 19.1867 21.3832C18.276 21.0204 17.589 20.4286 16.639 20.1044C16.7296 19.9114 16.8334 19.6791 16.9273 19.524C17.7867 19.9207 18.5443 20.4206 19.417 20.8027Z" fill="white"/>
<path d="M16.5998 20.2C16.8042 20.2726 16.9446 20.457 17.0997 20.5562C16.5339 20.5368 16.2044 20.889 16.1944 21.4155C16.1797 22.1744 16.7928 22.7196 17.5364 22.6716C17.9571 22.6437 18.3113 22.3841 18.3526 21.9361C18.3792 21.6512 18.3086 21.4468 18.2341 21.2498C18.4345 21.321 18.6255 21.4748 18.7806 21.6219C18.4984 22.3861 18.2754 23.4245 17.1936 23.3486C16.8488 23.3253 16.5172 23.1396 16.2896 22.9279C16.0606 22.7149 15.8722 22.416 15.8063 22.0765C15.7271 21.6738 15.8316 21.2238 16.0033 20.9769C16.0999 20.8417 16.2183 20.7365 16.3215 20.6294C16.442 20.5056 16.5226 20.3638 16.5998 20.2Z" fill="white"/>
<path d="M34.8674 22.5926C34.1451 22.9973 33.4088 23.3754 32.6945 23.7961C32.5348 23.7096 32.5554 23.5212 32.4243 23.4167C33.1306 22.996 33.8841 22.5953 34.5372 22.1187C34.7309 22.2298 34.7209 22.4548 34.8674 22.5926Z" fill="white"/>
<path d="M34.9361 22.914C35.1385 23.0372 35.1245 23.2821 35.259 23.4439C34.8636 23.8167 34.4981 24.2427 34.1359 24.6754C34.7737 24.6561 35.4174 24.6481 35.8754 24.3073C35.9633 24.461 36.141 24.5656 36.1404 24.7692C35.2224 24.8138 34.4155 25.0595 33.5847 25.2605C33.4243 25.124 33.3265 24.951 33.2386 24.7759C33.849 24.2341 34.327 23.4592 34.9361 22.914Z" fill="white"/>
<path d="M17.4315 24.1468C17.3756 24.469 17.142 24.6215 16.8424 24.714C16.2899 23.9538 15.6182 23.3134 14.828 22.7969C14.9239 22.5599 15.2161 22.512 15.3219 22.2876C15.9837 22.9506 16.5635 23.6962 17.4315 24.1468Z" fill="white"/>
<path d="M14.4854 23.088C14.7437 23.0334 14.7963 23.2771 15.0113 23.287C14.9194 23.3749 14.8003 23.4248 14.6938 23.5227C14.6219 23.5879 14.4914 23.735 14.514 23.8535C14.5273 23.9228 14.6492 24.0239 14.7191 24.0932C15.2183 24.5911 15.8854 24.9639 16.386 25.3985C16.3161 25.5876 16.0997 25.6648 16.0511 25.8705C15.3694 25.4232 14.777 24.8474 14.1213 24.3641C13.857 24.5205 13.6679 24.7329 13.584 25.0238C13.4589 24.9545 13.393 24.8014 13.2918 24.6996C13.6027 24.0958 14.1266 23.6552 14.4854 23.088Z" fill="white"/>
<path d="M37.2011 25.9447C36.8736 25.8296 37.0154 25.1939 36.554 25.2331C36.1027 25.2704 36.0275 26.1265 36.6213 26.0699C36.5248 26.2643 36.3264 26.3561 36.0814 26.4007C36.1094 26.1578 36.0468 25.9341 35.875 25.8622C35.6793 25.9201 35.4437 26.0532 35.2945 26.2103C35.2233 26.2856 35.1361 26.4047 35.1221 26.5172C35.0815 26.8148 35.3698 26.9133 35.6088 26.9805C35.5595 27.1163 35.3611 27.2454 35.1627 27.1543C34.8379 27.0051 34.6488 26.45 34.4578 26.1604C34.8991 26.0333 35.242 25.6911 35.5435 25.3902C35.6747 25.2591 35.8191 25.1313 35.9656 25.0088C36.1193 24.8817 36.2838 24.7432 36.4628 24.6946C36.5001 24.6846 36.578 24.696 36.6286 24.7199C36.8043 24.7978 36.9308 24.9296 37.0839 25.108C37.275 25.3283 37.5226 25.7337 37.2011 25.9447Z" fill="white"/>
<path d="M36.9804 27.6579C36.8119 28.486 37.9363 28.4581 37.9989 27.8643C38.0162 27.6965 37.9649 27.5801 37.8917 27.4915C37.5901 27.5508 37.2493 27.5681 36.9804 27.6579ZM35.9372 29.2069C35.4832 29.2116 35.1956 30.2014 35.7714 30.2587C35.8234 30.2633 35.868 30.2554 35.9199 30.2414C36.4192 30.1149 36.8066 29.5211 37.3951 29.4792C37.7459 29.4559 38.0608 29.7375 38.0162 30.1016C37.9676 30.5076 37.6154 30.7506 37.5269 31.1194C37.3418 31.0628 37.2486 30.913 37.0376 30.8797C37.2633 30.7253 37.7353 30.459 37.4457 30.0763C37.0988 30.0989 36.8918 30.2454 36.6495 30.3918C36.4312 30.5223 36.1742 30.704 35.8533 30.706C35.3674 30.71 35.1204 30.3479 35.1577 29.7954C35.175 29.5484 35.2682 29.2635 35.3734 29.0658C35.3873 29.0392 35.4133 29.0059 35.4313 28.966C35.4825 28.8535 35.4832 28.8308 35.647 28.8342C35.6303 28.6884 35.7228 28.5859 35.7375 28.4454C35.9652 28.2038 36.3446 28.1133 36.5243 27.823C36.1023 27.7844 35.7714 27.9082 35.4885 28.0387C35.3514 27.9395 35.4386 27.6147 35.3647 27.4509C36.2168 27.2153 37.3365 27.2026 38.0328 26.8372C38.4555 27.4849 38.4349 28.8768 37.3771 28.7836C37.1122 28.7603 36.9357 28.6052 36.756 28.486C36.7041 28.4521 36.6189 28.3782 36.565 28.3709C36.4578 28.3536 36.2907 28.4348 36.2002 28.486C36.1163 28.5346 35.9612 28.6385 35.9445 28.7104C35.9372 28.741 35.9558 28.8069 35.9532 28.8508C35.9419 28.9886 35.8626 29.0951 35.9372 29.2069Z" fill="white"/>
<path d="M12.6748 28.5063C12.5004 28.6001 12.2727 28.6427 12.1449 28.7799C12.3885 28.7599 12.539 28.8311 12.76 28.8345C12.7693 28.688 12.7387 28.5815 12.6748 28.5063ZM14.0847 28.061C14.0335 28.0643 13.9443 28.003 13.8557 27.9964C13.6008 27.9784 13.3911 28.1715 13.186 28.224V28.5429C13.186 28.6361 13.1548 28.7659 13.186 28.8617C13.222 28.9816 13.455 29.0049 13.6008 29.0162C13.7659 29.0295 14.0202 28.9982 14.1307 29.0528C14.2412 29.108 14.3783 29.4129 14.4249 29.5354C14.4961 29.7264 14.5341 29.9142 14.566 30.1545C13.7772 30.2184 13.4237 30.701 12.76 30.884C13.1102 31.0092 13.6361 30.9133 14.0847 30.9386C14.0654 31.2275 13.9023 31.3753 13.8478 31.6309C14.4342 31.537 14.7871 31.2169 15.2384 30.9939C15.2557 31.1829 15.4035 31.2468 15.4168 31.4392C14.4475 31.768 13.6114 32.2273 12.8066 32.7146C12.8159 32.5269 12.6149 32.4796 12.6175 32.3225C12.6189 32.2646 12.7094 32.1328 12.7494 32.0682C12.8891 31.8413 13.1035 31.595 13.2313 31.3939C12.9011 31.2422 12.3779 31.2754 11.9079 31.2568C11.864 31.0252 11.7169 30.8947 11.7082 30.6284C12.6588 30.3928 13.3538 29.9108 14.14 29.5181C13.2779 29.2026 12.1156 29.1706 11.0944 29.0075C11.0944 28.8438 11.1044 28.67 11.0452 28.5615C12.0211 28.0843 12.9198 27.4852 13.9982 27.141C14.0994 27.376 14.1014 27.7408 14.0847 28.061Z" fill="white"/>
<path d="M37.6848 31.9449C37.4038 32.7118 36.9825 33.3362 36.6736 34.0737C36.4645 34.0711 36.3367 33.9859 36.2009 33.9086C36.1863 33.882 36.2502 33.8388 36.2841 33.8088C36.3867 33.7163 36.5158 33.6071 36.599 33.4939C36.0611 32.9867 35.2996 32.6998 34.5939 32.3596C34.6325 32.1639 34.7703 32.0661 34.8016 31.8624C35.4134 32.2918 36.1849 32.5607 36.8799 32.9055C37.0297 32.8323 37.047 32.6252 37.1382 32.4915C36.5484 32.0368 35.8328 31.708 35.1005 31.3984C35.1285 31.1808 35.2936 31.1009 35.3475 30.9092C36.1097 31.2733 36.7967 31.7093 37.6848 31.9449Z" fill="white"/>
<path d="M16.2155 33.5032C15.3288 33.8055 14.5193 34.1782 13.7558 34.5969C13.602 34.4212 13.5168 34.1815 13.4622 33.9133C14.2704 33.6637 14.992 33.3268 15.6098 32.8928C15.5725 32.5367 15.1358 32.5653 14.8522 32.4468C14.992 32.3403 15.1997 32.2099 15.4673 32.2744C15.9506 32.3876 16.2089 32.9581 16.2155 33.5032Z" fill="white"/>
<path d="M34.94 34.1459C35.0818 34.1519 35.2895 34.2577 35.3953 34.1459C35.2143 34.1219 35.1923 33.9355 34.9899 33.9316C34.9486 33.9788 34.9327 34.0507 34.94 34.1459ZM36.2734 34.5606C35.5684 34.7244 34.8015 34.4874 34.0626 34.5273C34.0446 34.6525 34.1984 34.7217 34.2197 34.8089C33.9508 34.8089 33.7677 34.9454 33.6146 35.1164C33.4755 35.2715 33.2551 35.6483 33.4821 35.836C33.5427 35.8859 33.6931 35.9419 33.8389 35.9279C34.1365 35.8973 34.3475 35.5984 34.5506 35.3727C34.7509 35.1497 34.9713 34.8928 35.3041 34.8588C35.8227 34.8062 36.1103 35.1311 36.0677 35.6789C36.0417 35.9858 35.8121 36.0683 35.8174 36.4824C35.6277 36.507 35.4779 36.4424 35.3308 36.3992C35.6123 36.2907 35.8567 35.7455 35.5604 35.4799C34.9779 35.5351 34.7989 35.9825 34.4434 36.292C34.2983 36.4191 34.1551 36.5523 33.8889 36.5323C33.5081 36.503 33.1486 36.2174 33.1107 35.8706C33.1033 35.8081 33.1047 35.7375 33.1107 35.6709C33.1373 35.3341 33.3323 35.0459 33.4821 34.7763C33.6405 34.4914 33.793 34.2218 33.8629 33.8989C33.9674 33.9142 34.0693 33.9549 34.1871 33.9722C34.2943 33.9895 34.4487 34.0188 34.5506 33.9808C34.6944 33.9289 34.7243 33.5967 34.8568 33.5089C34.7429 33.2533 34.4973 33.1294 34.2776 32.979C34.3375 32.8785 34.4201 32.7567 34.4933 32.6968C34.7929 33.003 35.0998 33.3038 35.4046 33.608C35.7062 33.9103 36.0723 34.1612 36.2734 34.5606Z" fill="white"/>
<path d="M15.6366 35.3742C15.5374 35.54 15.3457 35.6165 15.2585 35.7943C15.4536 35.7863 15.6253 35.711 15.8363 35.7477C15.7897 35.6039 15.7844 35.4215 15.6366 35.3742ZM16.261 33.8718C16.4368 33.997 16.4727 34.3058 16.5819 34.4636C16.4927 34.7538 16.1532 34.8017 16.0147 35.0467C16.1279 35.2517 16.2184 35.4774 16.3569 35.6571C16.6858 35.7896 17.0053 35.6072 17.2556 35.52C17.2303 35.7643 17.3401 35.9221 17.3035 36.149C16.3103 35.9167 15.1154 36.2689 14.0756 36.1025C14.2613 35.5966 14.7765 35.3456 15.1453 34.9921C15.5255 34.626 15.8763 34.2346 16.261 33.8718Z" fill="white"/>
<path d="M18.7994 16.1147C18.8513 16.4615 18.2049 16.6485 18.4612 17.0386C18.7115 17.4207 19.527 17.0652 19.1908 16.5673C19.4138 16.5573 19.5929 16.6878 19.7507 16.8835C19.5163 16.9774 19.3426 17.1431 19.3592 17.3308C19.5057 17.476 19.74 17.6191 19.9544 17.6743C20.0569 17.7003 20.2073 17.7196 20.3165 17.6763C20.6067 17.5665 20.5588 17.2616 20.5049 17.0166C20.6527 16.994 20.8644 17.1065 20.877 17.3268C20.897 17.6883 20.4823 18.129 20.3098 18.4412C19.983 18.1117 19.5063 17.9765 19.0883 17.8567C18.9066 17.8055 18.7208 17.7402 18.5391 17.6703C18.3494 17.5964 18.145 17.5186 18.0145 17.3841C17.9879 17.3561 17.9613 17.2816 17.9579 17.2243C17.9453 17.0306 18.0045 16.8536 18.0937 16.6299C18.2029 16.3523 18.4532 15.9336 18.7994 16.1147Z" fill="white"/>
<path d="M22.1803 16.1829C22.1237 16.2501 22.0392 16.2275 22.0059 16.3227C21.494 16.1862 20.9381 15.7429 20.4122 15.5146C20.3982 15.6184 20.4455 15.7282 20.4908 15.8321C20.6219 16.1389 20.8829 16.4565 20.996 16.772C20.8935 16.9278 20.7604 16.8725 20.6552 17.001C20.1127 16.2388 19.9416 15.4227 19.3405 14.6698C19.8903 14.112 20.6639 15.0772 21.3229 15.2616C21.3262 15.1631 21.2723 15.0379 21.2217 14.9274C21.0766 14.5993 20.8676 14.2505 20.6892 13.9216C20.7824 13.8291 20.8855 13.8018 20.9874 13.7625C21.3855 14.5693 21.8122 15.3721 22.1803 16.1829Z" fill="white"/>
<path d="M30.3084 13.8615C30.2512 14.0073 30.0601 14.1211 30.0029 14.2456C29.8857 13.986 29.5515 13.5772 29.2413 13.7603C29.0702 13.8628 28.9923 14.0911 29.0496 14.3248C29.1787 14.8513 29.6687 15.3825 29.5582 15.8751C29.5076 16.0974 29.2812 16.3537 28.9351 16.4369C28.529 16.5341 28.0916 16.2725 27.87 16.0029C27.7987 15.9177 27.6729 15.732 27.7129 15.5929C27.7488 15.4657 27.9658 15.3599 28.1489 15.3572C28.2068 15.5183 28.0863 15.6528 28.1149 15.8239C28.1509 16.0402 28.3473 16.1194 28.4844 16.2406C28.742 16.2339 28.9517 16.0715 28.995 15.8917C29.0835 15.521 28.8019 15.0197 28.6635 14.5531C28.5177 14.0692 28.4917 13.5446 29.0782 13.4048C29.3159 13.3483 29.5682 13.4082 29.7692 13.4847C29.9816 13.5666 30.168 13.6971 30.3084 13.8615Z" fill="white"/>
<path d="M26.6792 43.681C26.4608 43.7069 26.365 44.0344 26.1653 44.1117C25.8477 44.2335 25.3398 44.1157 25.003 44.087C23.7967 43.9812 22.8002 43.9799 21.5979 43.9C21.4348 44.8439 22.3435 44.7554 23.1783 44.8006C24.758 44.8865 26.6852 44.9131 28.1284 44.9877C28.0132 44.6382 27.9087 44.2202 27.9879 43.7542C27.6005 43.8174 27.0679 43.6337 26.6792 43.681ZM19.477 42.1506C19.3665 42.3137 19.2833 42.4235 19.2833 42.6525C19.2833 42.9534 19.3399 43.2636 19.5429 43.3808C19.8778 43.5751 20.5188 43.5598 21.0281 43.5478C22.6783 43.5079 24.254 43.7862 25.8557 43.7629C25.7312 43.4267 25.6913 42.9461 25.7678 42.4854C23.6902 42.3583 21.4708 42.2558 19.3771 42.1453C19.3652 42.148 19.3958 42.1014 19.3885 42.1087M25.7745 41.8551C25.4044 41.8551 25.0476 41.8371 24.6874 41.8218C23.7375 41.7805 22.7942 41.7086 21.8589 41.664C21.3796 41.6414 20.9096 41.5675 20.4396 41.5888C20.2379 41.5988 20.0016 41.6361 19.8664 41.7219C19.8292 41.7472 19.7712 41.7805 19.7752 41.8304C21.7956 41.9329 23.8167 42.0381 25.7905 42.1866C25.8364 42.1493 25.8517 42.1067 25.899 42.0701C25.9636 42.0235 26.0581 42.0015 26.0814 41.913C26.0088 41.8184 25.8737 41.8551 25.7745 41.8551ZM28.4546 43.5305C28.3701 43.6164 28.201 43.7542 28.1737 43.8381C28.1171 44.0032 28.1743 44.2375 28.2063 44.3946C28.2436 44.5743 28.2436 44.8226 28.2962 44.9697C28.7495 44.6329 29.1636 44.1083 29.559 43.7143C29.9544 43.3169 30.4244 42.8263 30.7985 42.4062C30.6694 42.1566 30.7246 41.6793 30.7013 41.3225C30.0516 41.9749 29.1343 42.8522 28.4546 43.5305ZM29.0018 41.2407C28.9938 41.242 28.9938 41.254 28.9951 41.266C28.9519 41.5176 28.7255 41.6514 28.5551 41.8218C28.2469 42.13 27.964 42.4235 27.6831 42.7257C27.5366 42.8855 27.3995 43.0566 27.2603 43.191C27.2304 43.2203 27.1458 43.255 27.1605 43.2822C27.3775 43.2995 27.6098 43.3029 27.8162 43.3162C27.8881 43.3195 27.9853 43.3422 28.0319 43.3315C28.0851 43.3202 28.2129 43.1757 28.2808 43.1078C28.6916 42.6971 29.0704 42.3017 29.4685 41.905C29.6768 41.6946 29.8566 41.4889 30.0809 41.3405C29.7227 41.3066 29.3719 41.264 29.0018 41.2407ZM28.4632 40.3007C28.0825 40.6941 27.4867 41.3625 27.0786 41.7719C27.02 41.8298 26.9361 41.925 26.8869 41.9376C26.8017 41.9602 26.7211 41.9489 26.6546 41.9622C25.9935 42.098 25.7219 43.0885 26.0581 43.7276C26.9095 42.9854 27.918 42.0521 28.6397 41.1814C28.5192 41.011 28.5425 40.5118 28.4632 40.3007ZM20.1407 40.9404C20.381 41.3831 20.9775 41.3405 21.6758 41.3405C22.2503 41.3405 22.8035 41.3771 23.3101 41.4057C24.4551 41.4736 25.5868 41.5315 26.6219 41.5868C26.4768 41.2393 26.4335 40.778 26.4721 40.3007C24.3499 40.2402 22.3715 40.0624 20.2818 39.9706C20.1054 40.1723 20.0442 40.2581 20.0701 40.6349M29.1329 37.9396C29.1329 37.9336 29.346 37.718 29.1769 37.8864C28.7908 38.2738 28.2362 38.8543 27.7996 39.2903C27.6085 39.4826 27.3668 39.6584 27.1445 39.8554C26.9421 40.0345 26.6745 40.2821 26.6466 40.5856C26.6133 40.9278 26.7298 41.2413 26.781 41.5335C27.6345 40.794 28.5824 39.7476 29.336 38.9082C29.1436 38.7251 29.348 38.0927 29.2348 37.8305M23.836 37.5669C24.0583 37.5669 24.1322 37.5815 23.3607 38.0708C22.5565 38.58 21.6745 39.0613 20.9209 39.6138C20.9049 39.6251 20.8643 39.6337 20.871 39.665C22.6564 39.7203 24.3945 39.9047 26.1899 39.9546C26.3144 39.9586 26.4688 39.9919 26.5554 39.9706C26.6246 39.9546 26.7644 39.7815 26.8383 39.7136C26.9381 39.6204 27.0293 39.5339 27.1192 39.4487C27.6724 38.9288 28.209 38.4475 28.6969 37.8884C28.7089 37.8731 28.7588 37.8145 28.7289 37.8145C27.5825 37.8045 24.9777 37.7925 23.9638 37.5768C23.9538 37.5748 24.2787 37.5922 24.28 37.6035M29.6509 37.5489C29.4405 37.9163 29.336 38.7584 29.6509 39.0926C29.3287 39.6218 28.611 39.8361 28.7116 40.7354C29.4571 40.8799 30.3319 40.8972 31.1447 40.9757C31.1573 41.0203 31.1127 41.0583 31.0941 41.0995C30.9277 41.4696 30.8318 42.2398 31.1613 42.5274C30.3505 43.4294 29.4671 44.3193 28.5891 45.1987C28.5318 45.2539 28.4466 45.3531 28.406 45.3644C28.2935 45.3951 28.0505 45.3545 27.8821 45.3478C26.6512 45.2985 25.5076 45.23 24.298 45.1741C23.6742 45.1448 22.9213 45.1328 22.257 45.0662C21.53 44.993 20.9142 44.7507 21.0534 43.8953C20.4882 43.8134 19.9377 43.8687 19.4763 43.7389C19.0097 43.6058 18.7647 43.2656 18.7967 42.6925C18.8166 42.331 18.9651 41.9689 19.2034 41.7892C19.3991 41.6401 19.6554 41.5835 19.8418 41.4151C19.4564 41.0782 19.481 40.1263 19.7752 39.7389C19.9536 39.5039 20.3304 39.3275 20.6147 39.1744C21.5147 38.6905 22.6491 37.8897 23.4932 37.3958" fill="white"/>
<path d="M25.6767 30.3287C25.9051 31.1495 26.0981 31.3978 25.8072 31.8937C25.1402 33.03 25.6221 31.228 25.3938 30.4073C25.1655 29.5865 24.9158 28.7851 25.0723 28.7418C25.2281 28.6985 25.4484 29.508 25.6767 30.3287Z" fill="white"/>
<path d="M24.078 29.5777C23.8563 29.6642 23.7777 29.9804 23.8869 30.1921C23.9309 30.2773 24.0008 30.3472 24.048 30.4304C24.1512 30.6121 24.1352 30.8478 24.0347 31.0308C23.9342 31.2139 23.7584 31.3484 23.5661 31.4302C23.3018 31.5434 23.0069 31.564 22.7366 31.6619C22.4663 31.7591 22.2014 31.9747 22.1894 32.2623C22.2799 32.261 22.3698 32.225 22.4357 32.1631C22.4617 32.2996 22.4876 32.436 22.5129 32.5725C22.6141 32.3329 22.8205 32.1405 23.0668 32.0573C23.2532 31.994 23.4542 31.9921 23.6486 31.9568C24.1306 31.8696 24.6085 31.4861 24.5952 30.9962C24.5906 30.8385 24.5366 30.6874 24.4834 30.5389C24.4301 30.3905 24.3762 30.2414 24.323 30.0929C24.3296 29.83 24.7037 30.0277 24.8788 30.1269C25.0539 30.2254 25.3668 30.3113 25.3508 30.2527C25.3435 30.226 25.3302 30.1814 25.3222 30.1515C25.3142 30.1229 25.2962 29.9831 25.2749 29.9624C25.0233 29.7115 24.53 29.4013 24.078 29.5777Z" fill="white"/>
<path d="M25.5466 29.8634C25.6698 29.8142 25.5426 29.8648 25.6758 29.8115C25.9454 29.703 26.2576 29.5905 26.5139 29.727C26.6777 29.8142 26.7775 29.9839 26.8687 30.1457C26.9899 30.36 27.1117 30.5777 27.1776 30.8147C27.2528 31.0856 27.2568 31.3858 27.4146 31.6188C27.4572 31.6807 27.5091 31.736 27.557 31.7939C27.8446 32.138 28.0024 32.5887 27.9917 33.0373C27.8786 32.9395 27.7528 32.8556 27.6183 32.7897C27.6343 32.9348 27.5763 33.0859 27.4665 33.1831C27.4845 32.793 27.344 32.3976 27.0831 32.1061C27.0172 32.0322 26.9426 31.9636 26.89 31.8791C26.8321 31.7859 26.8035 31.6774 26.7748 31.5709C26.7296 31.3991 26.6843 31.2267 26.639 31.055C26.5838 30.844 26.5265 30.629 26.4027 30.4499C26.2789 30.2708 26.0739 30.1324 25.8568 30.149C25.6991 30.161 25.7989 30.2049 25.6412 30.1996" fill="white"/>
<path d="M16.1788 8.71958C16.5623 8.86802 17.3877 8.82808 17.6979 8.38341C17.6946 8.37609 17.7006 8.3741 17.6993 8.36811C17.2672 8.36944 16.6002 8.32284 16.1788 8.71958ZM18.1127 8.13446C18.09 8.62438 17.5169 8.99383 16.9164 9.06905C16.4458 9.12563 15.9864 9.04974 15.6909 8.78614C15.9525 8.29821 16.7007 8.10649 17.2659 8.08054C17.5728 8.0659 17.903 8.0872 18.1127 8.13446Z" fill="white"/>
<path d="M20.0336 8.01642C19.6821 7.80341 18.862 7.69757 18.4786 8.08099C18.4806 8.08831 18.4746 8.08964 18.4746 8.09563C18.9006 8.17019 19.5483 8.33327 20.0336 8.01642ZM18.0266 8.2534C18.1351 7.77545 18.7641 7.51185 19.3679 7.54313C19.8419 7.56977 20.2806 7.72486 20.5249 8.03639C20.1821 8.47107 19.4112 8.52898 18.8507 8.45509C18.5465 8.41582 18.2243 8.3366 18.0266 8.2534Z" fill="white"/>
<path d="M33.9494 8.65024C33.528 8.25351 32.8609 8.3001 32.4289 8.29877C32.4276 8.30476 32.4336 8.30676 32.4302 8.31408C32.7404 8.75875 33.5659 8.79869 33.9494 8.65024ZM32.0155 8.06512C32.2252 8.01786 32.5554 7.99656 32.8623 8.01121C33.4274 8.03716 34.1757 8.22887 34.4373 8.71681C34.1417 8.98041 33.6824 9.05629 33.2118 8.99972C32.6113 8.92449 32.0381 8.55505 32.0155 8.06512Z" fill="white"/>
<path d="M30.0946 7.9472C30.5798 8.2634 31.2276 8.10098 31.6536 8.02642C31.6536 8.02043 31.6476 8.01909 31.6496 8.01177C31.2662 7.62835 30.446 7.7342 30.0946 7.9472ZM32.1016 8.18419C31.9039 8.26739 31.5817 8.34661 31.2775 8.38587C30.717 8.45977 29.9461 8.40185 29.6033 7.96717C29.8476 7.65564 30.2863 7.50055 30.7603 7.47392C31.364 7.44264 31.9931 7.70623 32.1016 8.18419Z" fill="white"/>
<path d="M25.6965 23.1209C26.2025 22.7541 26.8349 21.6684 26.524 20.9049C26.5127 20.9022 26.5147 20.8936 26.506 20.8902C26.1505 21.4427 25.5394 22.2542 25.6965 23.1209ZM26.55 20.1693C27.1558 20.6033 27.1538 21.6404 26.7523 22.4685C26.4355 23.1162 25.9588 23.6394 25.3777 23.7979C24.9709 23.0603 25.3457 21.9473 25.7804 21.2044C26.0154 20.8017 26.3163 20.3976 26.55 20.1693Z" fill="white"/>
<path d="M24.5269 23.468C24.5535 23.5019 24.5928 23.5685 24.6101 23.5412C24.5329 22.5095 24.3125 21.6447 23.8039 21.1096C23.7939 22.1121 24.0988 22.9368 24.5269 23.468ZM25.0328 24.6882C24.9935 24.7201 24.9256 24.6349 24.8784 24.5976C24.1434 24.0052 23.4498 22.9248 23.3526 21.6288C23.32 21.1701 23.3919 20.6163 23.529 20.2915C24.7852 20.8173 25.2318 22.8702 25.0328 24.6882Z" fill="white"/>
<path d="M24.5977 28.3179C24.5544 27.1723 24.1077 26.3675 23.2942 26.1305C23.4227 27.2482 24.0145 27.7767 24.5977 28.3179ZM23.259 23.4293C23.2576 23.4193 23.2463 23.4233 23.2496 23.4399C23.3262 24.1668 23.4567 24.8438 23.7423 25.2958C23.8348 25.4436 23.9446 25.5854 24.0924 25.6539C24.0964 24.6987 23.8008 23.8254 23.259 23.4293ZM24.3028 26.3256C24.834 26.8448 25.1376 28.1781 24.9172 29.0608C24.7807 28.9949 24.6656 28.8784 24.5404 28.7805C24.1703 28.489 23.8128 28.1555 23.5166 27.7588C23.1618 27.2855 22.7823 26.3988 23.0586 25.6479C23.2902 25.6127 23.3961 25.7338 23.5665 25.7731C23.0845 25.0861 22.7797 23.8001 22.8342 22.6804C22.8422 22.6778 22.8436 22.6831 22.8442 22.6884C23.4667 22.8781 23.8914 23.4013 24.1716 24.0643C24.4479 24.7207 24.5684 25.7265 24.3028 26.3256Z" fill="white"/>
<path d="M26.7836 25.8429C26.1133 26.0912 25.6466 27.2388 25.7824 28.166C26.1925 27.543 26.7956 26.9073 26.8023 25.8555C26.8029 25.8495 26.8029 25.8435 26.7943 25.8449L26.7836 25.8429ZM26.1632 25.2511C26.5453 24.7126 27.203 24.0223 27.0905 23.1463C27.0918 23.1409 27.0918 23.1343 27.0805 23.1343C26.6565 23.5963 26.08 24.3531 26.1632 25.2511ZM27.3168 22.438L27.3368 22.442C27.5285 22.679 27.635 22.9659 27.5931 23.3453C27.4946 24.2413 26.9847 24.867 26.6112 25.3975C26.8908 25.4322 27.0346 25.2677 27.3175 25.3057C27.3222 27.0717 26.311 28.3464 25.381 29.1399C25.3018 28.6566 25.2465 28.196 25.2911 27.6841C25.3138 27.3979 25.3657 27.1016 25.4629 26.858C25.5521 26.6377 25.7059 26.4506 25.7718 26.2163C25.9156 25.7137 25.6639 25.2751 25.7165 24.7984C25.7771 24.2346 26.0354 23.7407 26.3203 23.3646C26.6065 22.9858 26.9474 22.6923 27.3168 22.438Z" fill="white"/>
<path d="M25.1298 20.9577C25.4993 20.2475 25.9187 18.7937 25.3855 18.108C24.9435 18.7517 24.6718 20.2834 25.1298 20.9577ZM25.2703 17.3332C26.0079 17.652 26.2489 18.4122 26.1703 19.3335C26.0745 20.4285 25.6098 21.3172 25.1671 21.9835C23.9489 21.2047 24.2312 18.2119 25.2703 17.3332Z" fill="white"/>
<path d="M27.6787 11.9129C27.9656 23.7351 28.9369 33.4271 30.5033 33.4271" stroke="white" stroke-width="1.25125" stroke-linecap="round"/>
<path d="M22.704 11.9258C22.4171 23.748 21.7088 33.4268 20.1424 33.4268" stroke="white" stroke-width="1.25125" stroke-linecap="round"/>
<path d="M20.0594 33.4444C20.345 34.0056 22.4779 34.5907 25.1819 34.5907" stroke="white" stroke-width="1.13023" stroke-linecap="round"/>
<path d="M30.5033 33.427C30.2197 34.0055 27.8958 34.5846 25.1917 34.5846" stroke="white" stroke-width="1.13023" stroke-linecap="round"/>
<path d="M22.704 11.9259C22.704 11.9186 24.7863 11.5491 27.4059 11.9133" stroke="white" stroke-width="1.29433" stroke-linecap="round"/>
<path d="M22.5747 11.937C23.3276 11.7746 21.1521 12.2279 20.5077 12.616C19.8627 13.004 19.3973 13.4667 18.926 14.0531C18.3515 14.7687 17.5953 15.4657 17.1839 16.2858C16.6593 17.3322 16.2726 18.4725 15.704 19.4956C15.31 20.2032 14.7947 20.8342 14.2994 21.4746C13.5026 22.5057 12.7523 23.5728 12.042 24.6658C11.1893 25.9785 10.3731 27.397 10.274 28.9593C10.1754 30.5103 10.7985 32.0174 11.5587 33.372C12.0174 34.1881 12.5387 34.9969 12.7144 35.9168C12.8908 36.8421 12.6858 37.8346 12.1572 38.6141C12.0727 38.7386 11.9761 38.8704 11.9788 39.0208C11.9841 39.359 12.4281 39.4728 12.7663 39.4861C14.3034 39.546 15.8412 39.6053 17.3789 39.6652C17.992 38.5775 18.6258 37.3866 18.4534 36.1498C18.3688 35.5474 18.0979 34.9902 17.8303 34.445C17.3656 33.4985 16.9016 32.5526 16.4376 31.6066C16.0109 30.7373 15.5742 29.8213 15.6175 28.8548C15.6515 28.0973 15.981 27.3817 16.3964 26.748C17.4415 25.155 19.0512 23.9535 19.882 22.2401C20.5297 20.9048 21.2193 18.6449 22.4356 18.0025" stroke="white" stroke-width="1.25125"/>
<path d="M27.2053 11.952C27.8803 11.7969 29.0239 12.1297 29.669 12.5171C30.3134 12.9052 30.8832 13.2999 31.3546 13.8864C31.929 14.6013 32.4756 15.3462 32.887 16.1663C33.4116 17.212 33.7085 18.3643 34.277 19.3874C34.6704 20.095 35.1863 20.7261 35.6816 21.3664C36.4784 22.3982 37.2287 23.4646 37.939 24.5576C38.7917 25.871 39.6079 27.2888 39.7071 28.8512C39.8056 30.4021 39.1825 31.9092 38.4216 33.2638C37.9636 34.0806 37.4417 34.8894 37.2666 35.8087C37.0902 36.7339 37.2952 37.7264 37.8238 38.5059C37.9083 38.6304 38.0049 38.7622 38.0022 38.9126C37.9969 39.2508 37.5529 39.3646 37.2147 39.3779C35.6769 39.4379 34.1398 39.4978 32.6021 39.557C31.989 38.4693 31.3552 37.2784 31.5276 36.0416C31.6122 35.4399 31.8831 34.8827 32.1507 34.3369C32.6147 33.3903 33.0794 32.4444 33.5434 31.4985C33.9694 30.6291 34.4061 29.7132 34.3635 28.7466C34.3296 27.9891 34 27.2735 33.584 26.6398C32.5395 25.0476 30.9298 23.8454 30.0984 22.132C29.4513 20.7966 29.2503 19.1305 28.06 18.2445" stroke="white" stroke-width="1.25125"/>
<path d="M21.0214 7.89978C22.3867 7.69742 23.5031 7.64417 25.1387 7.64417C26.7151 7.64417 27.8328 7.69942 29.1608 7.88846" stroke="white" stroke-width="0.384615" stroke-linecap="round"/>
<path fill-rule="evenodd" clip-rule="evenodd" d="M28.929 28.2767L28.5868 26.3862L34.1167 30.066L33.6002 31.2668L28.929 28.2767Z" stroke="white" stroke-width="0.625625"/>
<path fill-rule="evenodd" clip-rule="evenodd" d="M38.162 34.1872L38.6752 33.0995L44.9328 37.2633L44.3536 38.1512L38.162 34.1872Z" stroke="white" stroke-width="0.521013"/>
<path fill-rule="evenodd" clip-rule="evenodd" d="M21.6572 28.3302L21.7643 26.5789L15.9235 30.4657L16.4374 31.606L21.6572 28.3302Z" stroke="white" stroke-width="0.625625"/>
<path fill-rule="evenodd" clip-rule="evenodd" d="M5.82488 38.4587L5.24573 37.5714L11.4733 33.427L12.0279 34.4881L5.82488 38.4587Z" stroke="white" stroke-width="0.521013"/>
<path fill-rule="evenodd" clip-rule="evenodd" d="M28.276 24.0873L28.1269 22.3452L29.7006 21.2975L30.3596 22.7533L28.276 24.0873Z" stroke="white" stroke-width="0.833825"/>
<path fill-rule="evenodd" clip-rule="evenodd" d="M19.7888 22.4241L20.4472 20.9703L22.184 22.1259L22.0988 23.8719L19.7888 22.4241Z" stroke="white" stroke-width="0.833825"/>
<path d="M16.2647 18.3493L15.4273 19.6873L13.6845 18.5956L13.0035 18.4678C12.9103 18.4498 12.8204 18.4178 12.7378 18.3712L10.5577 17.1517L7.12934 17.2563L6.59878 16.9534C6.36113 16.8182 6.24729 16.5373 6.32452 16.2751L6.75988 14.7853C6.84243 14.5031 6.77785 14.1975 6.5868 13.9732L5.08099 12.2019" stroke="white" stroke-width="0.833825" stroke-linecap="round"/>
<path d="M15.3897 19.8962L16.2644 18.5822L14.5523 17.4433L14.1548 16.8755C14.1009 16.7976 14.0343 16.7297 13.9584 16.6731L11.9494 15.1887L10.6333 12.0208L10.1393 11.662C9.91833 11.5009 9.61544 11.5129 9.40841 11.6906L8.22946 12.7011C8.00578 12.8928 7.70089 12.9594 7.41797 12.8775L5.18323 12.2345" stroke="white" stroke-width="0.833825" stroke-linecap="round"/>
<path d="M33.7494 18.3493L34.5868 19.6873L36.3296 18.5956L37.0106 18.4678C37.1038 18.4498 37.1937 18.4178 37.2763 18.3712L39.4564 17.1517L42.8848 17.2563L43.4153 16.9534C43.653 16.8182 43.7668 16.5373 43.6896 16.2751L43.2542 14.7853C43.1717 14.5031 43.2362 14.1975 43.4273 13.9732L44.9331 12.2019" stroke="white" stroke-width="0.833825" stroke-linecap="round"/>
<path d="M34.6245 19.8962L33.7498 18.5822L35.4619 17.4433L35.8594 16.8755C35.9133 16.7976 35.9798 16.7297 36.0557 16.6731L38.0648 15.1887L39.3809 12.0208L39.8748 11.662C40.0958 11.5009 40.3987 11.5129 40.6058 11.6906L41.7847 12.7011C42.0084 12.8928 42.3133 12.9594 42.5962 12.8775L44.831 12.2345" stroke="white" stroke-width="0.833825" stroke-linecap="round"/>
<path fill-rule="evenodd" clip-rule="evenodd" d="M49.1198 25.021C49.1198 38.3282 38.3316 49.116 25.0236 49.116C11.715 49.116 0.926697 38.3282 0.926697 25.021C0.926697 11.7137 11.715 0.925971 25.0236 0.925971C38.3316 0.925971 49.1198 11.7137 49.1198 25.021Z" stroke="white" stroke-width="2.08508"/>
<path d="M6.21808 36.8859C4.04259 33.4544 2.78375 29.3845 2.78375 25.0211C2.78375 20.7702 3.97868 16.7988 6.05099 13.4239C6.06963 13.394 6.08761 13.364 6.10625 13.3347" stroke="white" stroke-width="0.804082"/>
<path d="M43.3601 37.4606C39.3692 43.3464 32.6251 47.2139 24.9775 47.2139C17.4891 47.2139 10.8667 43.5055 6.84726 37.8247C6.83928 37.8134 6.83062 37.8014 6.82263 37.7901" stroke="white" stroke-width="0.804082"/>
<path d="M43.8525 13.3404C43.8751 13.3776 43.8984 13.4143 43.921 13.4515C45.9834 16.8205 47.1716 20.7818 47.1716 25.0207C47.1716 29.2344 45.9974 33.1731 43.9583 36.5287C43.9463 36.5494 43.9337 36.57 43.921 36.59" stroke="white" stroke-width="0.804082"/>
<path d="M6.62531 12.5369C10.6202 6.6764 17.3497 2.8282 24.9772 2.8282C32.6281 2.8282 39.3749 6.69903 43.3651 12.5895" stroke="white" stroke-width="0.804082"/>
<path d="M15.6266 11.7041V7.91715" stroke="white" stroke-width="1.03792"/>
<path d="M19.4587 13.8567C17.0262 13.452 15.4732 12.6066 15.6263 11.7039C15.844 10.4245 19.8981 9.55185 25.1331 9.55185C30.3688 9.55185 34.7737 10.4405 34.7433 11.7039C34.7191 12.7078 33.4463 13.4653 30.956 13.8567" stroke="white" stroke-width="1.03792"/>
<path d="M34.7196 7.96423C34.7196 7.08423 30.3832 6.17626 25.2181 6.13699" stroke="white" stroke-width="1.03792"/>
<path d="M34.7196 11.4894V7.94939" stroke="white" stroke-width="1.03792"/>
<path d="M15.6266 7.97144C15.6266 7.09143 20.1746 6.10625 25.3111 6.13687" stroke="white" stroke-width="1.03792"/>
<path d="M62.7769 27.9443C62.7769 29.3428 62.7769 30.8659 64.1003 31.9888C64.774 32.5633 65.923 32.9381 66.8463 32.9381C67.7703 32.9381 68.9193 32.5633 69.593 31.9888C70.9164 30.8659 70.9164 29.3428 70.9164 27.9443V17.733H72.7637V28.4442C72.7637 29.8421 72.6139 31.19 71.7152 32.4388C70.7167 33.8114 68.9686 34.6854 66.8463 34.6854C64.7241 34.6854 62.9766 33.8114 61.9781 32.4388C61.0794 31.19 60.9296 29.8421 60.9296 28.4442V17.733H62.7769V27.9443Z" fill="white"/>
<path d="M77.0559 34.3857V17.0345L90.039 30.6406V17.7328L91.8863 17.7328V35.1345L78.9032 21.5284V34.3857H77.0559Z" fill="white"/>
<path d="M98.0254 34.3859H96.1781V17.733H98.0254V34.3859Z" fill="white"/>
<path d="M102.418 17.733L107.112 30.4412L111.807 17.733H113.854L107.112 35.3844L100.371 17.733H102.418Z" fill="white"/>
<path d="M124.837 19.481H118.046V24.4242H124.637V26.1723H118.046V32.6385H124.837V34.3859H116.198V17.733H124.837V19.481Z" fill="white"/>
<path d="M130.902 17.733C132.025 17.733 133.698 17.8075 134.947 18.6569C135.92 19.3059 136.77 20.58 136.77 22.352C136.77 24.8988 135.097 26.7707 132.575 26.9457L137.868 34.3859H135.621L130.552 27.0962H130.078V34.3859H128.231V17.733H130.902ZM130.078 25.448H131.252C133.549 25.448 134.922 24.3497 134.922 22.4019C134.922 21.478 134.648 20.5541 133.599 19.955C132.85 19.5309 132.001 19.481 131.202 19.481H130.078V25.448Z" fill="white"/>
<path d="M148.203 21.0289C147.979 20.5796 147.604 20.0797 147.229 19.7808C146.905 19.5312 146.305 19.2063 145.356 19.2063C143.709 19.2063 142.56 20.2301 142.56 21.7778C142.56 22.4275 142.735 22.8016 143.184 23.2263C143.683 23.7255 144.308 23.9998 144.932 24.2747L146.53 24.9736C147.504 25.3977 148.403 25.847 149.102 26.5466C149.95 27.3947 150.3 28.3685 150.3 29.5674C150.3 32.6381 148.028 34.6857 145.032 34.6857C143.933 34.6857 142.56 34.4607 141.411 33.337C140.588 32.5382 140.089 31.3893 139.864 30.3908L141.661 29.8916C141.786 30.7656 142.186 31.5151 142.66 32.0144C143.384 32.7379 144.208 32.9383 145.057 32.9383C147.33 32.9383 148.403 31.3148 148.403 29.6419C148.403 28.8931 148.178 28.244 147.579 27.6949C147.104 27.2456 146.455 26.946 145.581 26.5466L144.084 25.847C143.434 25.5474 142.61 25.1986 141.861 24.4744C141.137 23.7755 140.712 23.0013 140.712 21.7532C140.712 19.1817 142.685 17.459 145.382 17.459C146.406 17.459 147.229 17.6587 148.053 18.2079C148.727 18.6572 149.301 19.3308 149.676 20.0551L148.203 21.0289Z" fill="white"/>
<path d="M155.541 34.3859H153.694V17.733H155.541V34.3859Z" fill="white"/>
<path d="M163.929 19.481V34.3859H162.082V19.481H158.036V17.733H167.974V19.481H163.929Z" fill="white"/>
<path d="M178.534 29.6923H171.442L169.445 34.3859H167.398L175.063 16.9342L182.528 34.3859H180.481L178.534 29.6923ZM171.393 13.4887L173.14 12.3657L176.286 15.6115L175.213 16.4103L171.393 13.4887ZM177.809 27.9442L175.013 21.2783L172.167 27.9442H177.809Z" fill="white"/>
<path d="M190.689 17.7327H194.084C195.757 17.7327 198.129 17.9078 200.226 19.6805C201.749 20.9539 203.073 23.076 203.073 26.0722C203.073 29.5676 201.35 31.4394 200.151 32.4632C198.628 33.7612 197.03 34.3856 194.059 34.3856H190.689V17.7327ZM192.536 32.6383H194.159C195.482 32.6383 197.305 32.4878 198.928 31.1398C200.176 30.0914 201.175 28.4439 201.175 26.0722C201.175 22.0775 198.378 19.4808 194.159 19.4808H192.536V32.6383Z" fill="white"/>
<path d="M208.313 34.3859H206.465V17.733H208.313V34.3859Z" fill="white"/>
<path d="M221.443 17.7329C223.116 17.7329 224.514 17.9332 225.637 18.9064C226.861 19.9548 227.161 21.428 227.161 22.4764C227.161 24.8242 225.688 27.1453 221.893 27.1453H220.27V34.3857H218.423V17.7329H221.443ZM220.27 25.398H221.793C223.99 25.398 225.313 24.2996 225.313 22.3772C225.313 19.7305 222.841 19.4809 221.643 19.4809H220.27V25.398Z" fill="white"/>
<path d="M237.696 29.6923H230.605L228.608 34.3859H226.56L234.225 16.9342L241.691 34.3859H239.644L237.696 29.6923ZM236.972 27.9442L234.176 21.2783L231.329 27.9442H236.972Z" fill="white"/>
<path d="M242.838 17.733L247.532 30.4412L252.226 17.733H254.273L247.532 35.3844L240.79 17.733H242.838Z" fill="white"/>
<path d="M258.465 34.3859H256.618V17.733H258.465V34.3859Z" fill="white"/>
<path d="M271.946 29.6923H264.856L262.859 34.3859H260.81L268.476 16.9342L275.941 34.3859H273.894L271.946 29.6923ZM271.222 27.9442L268.426 21.2783L265.579 27.9442H271.222Z" fill="white"/>
</g>
<defs>
<clipPath id="clip0_63_305">
<rect width="276.154" height="50" fill="white"/>
</clipPath>
</defs>
</svg>
