<svg width="166" height="30" viewBox="0 0 166 30" fill="none" xmlns="http://www.w3.org/2000/svg">
<g clip-path="url(#clip0_64_1021)">
<path d="M18.3396 9.16143C18.4956 9.17901 18.5112 9.33797 18.613 9.41065C18.1995 9.79608 17.8291 10.2258 17.3913 10.5877C17.3335 10.493 17.2513 10.4231 17.187 10.3349C17.6069 9.9786 17.974 9.57081 18.3396 9.16143Z" fill="#B2284B"/>
<path d="M19.3626 10.066C19.3019 10.1375 19.1714 10.1655 19.1151 10.2254C19.0988 10.0552 18.9878 9.75846 18.7763 9.8028C18.6594 9.82756 18.5712 9.94219 18.5584 10.086C18.5301 10.4103 18.7061 10.8065 18.548 11.0653C18.4766 11.1815 18.2986 11.2834 18.0863 11.2638C17.8368 11.2406 17.6393 11.0074 17.5651 10.8117C17.5411 10.7494 17.5056 10.6196 17.5555 10.5481C17.6002 10.483 17.7439 10.4646 17.848 10.4985C17.85 10.6016 17.7558 10.6543 17.7391 10.757C17.7175 10.8872 17.8137 10.9698 17.868 11.0653C18.0156 11.1112 18.1661 11.0593 18.2252 10.9654C18.3473 10.7725 18.2838 10.4331 18.2954 10.1411C18.3062 9.83834 18.3924 9.53521 18.7524 9.56875C18.898 9.58273 19.0301 9.66541 19.1291 9.74768C19.2341 9.83515 19.3147 9.94538 19.3626 10.066Z" fill="#B2284B"/>
<path d="M12.0499 11.2935C12.0471 11.3422 12.0004 11.3602 12.0179 11.4137C11.7374 11.5223 11.3323 11.5099 11.0142 11.583C11.043 11.6338 11.1024 11.6669 11.1583 11.6981C11.3231 11.7907 11.5506 11.8454 11.7099 11.9481C11.7162 12.0511 11.6368 12.0707 11.6324 12.1626C11.1244 12.004 10.768 11.6985 10.2368 11.5631C10.2975 11.1333 10.9803 11.3054 11.3439 11.1685C11.312 11.1237 11.2445 11.0862 11.1839 11.0538C11.0055 10.956 10.7912 10.8709 10.5976 10.7838C10.6084 10.7119 10.6459 10.6656 10.6794 10.6141C11.1364 10.8405 11.6049 11.0554 12.0499 11.2935Z" fill="#B2284B"/>
<path d="M19.9036 11.4781C19.5268 11.5911 19.2363 11.8252 18.9709 12.094C19.3281 12.0572 19.6885 12.0277 20.0237 11.9606C20.1598 12.1307 20.2464 12.3368 20.3386 12.5393C20.1769 12.7622 20.0249 13.0002 19.8792 13.2458C20.0496 13.2011 20.2029 13.0529 20.3641 12.9459C20.406 12.9175 20.493 12.8488 20.525 12.8508C20.6191 12.8568 20.6287 13.0286 20.6575 13.0937C20.424 13.2314 20.1861 13.3489 19.9519 13.4791C19.724 13.6053 19.5149 13.7946 19.2263 13.8309C19.3664 13.3628 19.635 13.0745 19.8369 12.6903C19.4718 12.8077 19.1816 13.0282 18.8468 13.1863C18.8157 13.1616 18.6991 13.0481 18.7295 12.9762C18.7438 12.9431 18.8687 12.9135 18.9031 12.8984C19.2958 12.7286 19.6869 12.4774 20.0041 12.2342C19.5496 12.235 19.0771 12.3037 18.6193 12.3444C18.5634 12.35 18.4629 12.3703 18.421 12.3584C18.3379 12.3336 18.3084 12.1711 18.2869 12.0952C18.4138 12.0229 18.5423 11.9642 18.6624 11.8883C18.7805 11.8132 18.8915 11.7297 19.0032 11.641C19.2275 11.4633 19.441 11.2436 19.6438 11.0639C19.7763 11.1686 19.8449 11.3207 19.9036 11.4781Z" fill="#B2284B"/>
<path d="M11.6406 12.4816C11.6414 12.6462 11.5831 12.7496 11.5025 12.8299C10.9566 12.6122 10.5447 12.2572 9.97522 12.0627C10.0295 11.9468 10.0918 11.8075 10.148 11.7144C10.6632 11.9524 11.1174 12.2524 11.6406 12.4816Z" fill="#B2284B"/>
<path d="M9.95169 12.12C10.0742 12.1635 10.1584 12.2742 10.2514 12.3337C9.91218 12.3221 9.71463 12.5334 9.70865 12.8493C9.69987 13.3046 10.0674 13.6317 10.5132 13.603C10.7654 13.5862 10.9777 13.4304 11.0025 13.1616C11.0185 12.9907 10.9762 12.8681 10.9315 12.7499C11.0516 12.7926 11.1661 12.8849 11.2591 12.9731C11.0899 13.4316 10.9562 14.0547 10.3077 14.0092C10.101 13.9952 9.90221 13.8838 9.76572 13.7567C9.62843 13.6289 9.51549 13.4496 9.47598 13.2459C9.42849 13.0043 9.49115 12.7343 9.59411 12.5861C9.65198 12.505 9.72302 12.4419 9.78487 12.3776C9.85711 12.3033 9.9054 12.2183 9.95169 12.12Z" fill="#B2284B"/>
<path d="M20.9031 13.5556C20.4701 13.7984 20.0287 14.0252 19.6005 14.2777C19.5047 14.2257 19.5171 14.1127 19.4385 14.05C19.8619 13.7976 20.3137 13.5572 20.7052 13.2712C20.8213 13.3379 20.8153 13.4729 20.9031 13.5556Z" fill="#B2284B"/>
<path d="M20.9444 13.7483C21.0657 13.8222 21.0573 13.9692 21.1379 14.0663C20.9009 14.2899 20.6818 14.5455 20.4647 14.8052C20.847 14.7936 21.2329 14.7888 21.5075 14.5843C21.5602 14.6765 21.6667 14.7393 21.6663 14.8615C21.116 14.8882 20.6323 15.0356 20.1342 15.1562C20.038 15.0743 19.9794 14.9705 19.9267 14.8655C20.2927 14.5404 20.5792 14.0755 20.9444 13.7483Z" fill="#B2284B"/>
<path d="M10.4503 14.4881C10.4168 14.6814 10.2767 14.7728 10.0971 14.8284C9.76586 14.3723 9.36318 13.988 8.88947 13.6781C8.94693 13.5359 9.12213 13.5072 9.18559 13.3726C9.58228 13.7704 9.92989 14.2177 10.4503 14.4881Z" fill="#B2284B"/>
<path d="M8.68407 13.8527C8.83892 13.82 8.87045 13.9661 8.99935 13.9721C8.94428 14.0249 8.87284 14.0548 8.80899 14.1135C8.76588 14.1527 8.68766 14.2409 8.70123 14.312C8.70921 14.3536 8.78225 14.4143 8.82415 14.4558C9.12347 14.7546 9.52335 14.9782 9.82347 15.239C9.78156 15.3525 9.65186 15.3988 9.62273 15.5222C9.21406 15.2538 8.85887 14.9083 8.46577 14.6184C8.30733 14.7122 8.19399 14.8396 8.1437 15.0142C8.06868 14.9726 8.02917 14.8808 7.96851 14.8197C8.15488 14.4574 8.46896 14.193 8.68407 13.8527Z" fill="#B2284B"/>
<path d="M22.3022 15.5668C22.1059 15.4977 22.1909 15.1162 21.9143 15.1398C21.6437 15.1622 21.5986 15.6758 21.9546 15.6419C21.8968 15.7585 21.7778 15.8136 21.631 15.8404C21.6477 15.6946 21.6102 15.5604 21.5073 15.5172C21.3899 15.552 21.2486 15.6319 21.1592 15.7261C21.1165 15.7713 21.0643 15.8427 21.0559 15.9102C21.0315 16.0888 21.2043 16.1479 21.3476 16.1882C21.3181 16.2697 21.1992 16.3472 21.0802 16.2925C20.8855 16.203 20.7721 15.8699 20.6576 15.6962C20.9222 15.6199 21.1277 15.4146 21.3085 15.2341C21.3871 15.1554 21.4737 15.0787 21.5615 15.0052C21.6537 14.9289 21.7523 14.8459 21.8596 14.8167C21.882 14.8107 21.9287 14.8175 21.959 14.8319C22.0644 14.8786 22.1402 14.9577 22.232 15.0647C22.3465 15.1969 22.495 15.4402 22.3022 15.5668Z" fill="#B2284B"/>
<path d="M22.1699 16.5948C22.069 17.0916 22.743 17.0749 22.7805 16.7186C22.7909 16.618 22.7602 16.5481 22.7163 16.4949C22.5355 16.5305 22.3312 16.5409 22.1699 16.5948ZM21.5446 17.5242C21.2724 17.527 21.1 18.1209 21.4452 18.1552C21.4763 18.158 21.503 18.1532 21.5342 18.1449C21.8335 18.069 22.0658 17.7127 22.4186 17.6875C22.6289 17.6736 22.8176 17.8425 22.7909 18.061C22.7618 18.3046 22.5507 18.4504 22.4976 18.6717C22.3866 18.6377 22.3308 18.5478 22.2042 18.5279C22.3395 18.4352 22.6225 18.2755 22.4489 18.0458C22.241 18.0594 22.1168 18.1473 21.9716 18.2351C21.8407 18.3134 21.6866 18.4224 21.4943 18.4236C21.2029 18.426 21.0549 18.2088 21.0772 17.8773C21.0876 17.7291 21.1435 17.5581 21.2065 17.4395C21.2149 17.4235 21.2305 17.4036 21.2412 17.3796C21.272 17.3121 21.2724 17.2985 21.3705 17.3005C21.3606 17.2131 21.416 17.1516 21.4248 17.0673C21.5613 16.9223 21.7888 16.868 21.8965 16.6938C21.6435 16.6707 21.4452 16.745 21.2756 16.8232C21.1934 16.7637 21.2456 16.5688 21.2013 16.4706C21.7122 16.3292 22.3834 16.3216 22.8009 16.1023C23.0543 16.491 23.0419 17.3261 22.4078 17.2702C22.2489 17.2562 22.1432 17.1631 22.0354 17.0916C22.0043 17.0713 21.9532 17.0269 21.9209 17.0225C21.8566 17.0122 21.7565 17.0609 21.7022 17.0916C21.6519 17.1208 21.5589 17.1831 21.5489 17.2262C21.5446 17.2446 21.5557 17.2842 21.5541 17.3105C21.5473 17.3932 21.4999 17.4571 21.5446 17.5242Z" fill="#B2284B"/>
<path d="M7.59861 17.1038C7.49405 17.1601 7.35756 17.1856 7.28094 17.2679C7.427 17.2559 7.5172 17.2987 7.6497 17.3007C7.65528 17.2128 7.63692 17.1489 7.59861 17.1038ZM8.44388 16.8366C8.41315 16.8386 8.35967 16.8018 8.3066 16.7978C8.15374 16.787 8.02803 16.9029 7.90511 16.9344V17.1257C7.90511 17.1816 7.88636 17.2595 7.90511 17.317C7.92666 17.3889 8.06634 17.4029 8.15374 17.4097C8.25272 17.4177 8.40517 17.3989 8.47142 17.4317C8.53767 17.4648 8.61988 17.6477 8.64782 17.7212C8.69052 17.8359 8.71327 17.9485 8.73242 18.0927C8.2595 18.131 8.04759 18.4206 7.6497 18.5304C7.85962 18.6055 8.1749 18.548 8.44388 18.5632C8.43231 18.7365 8.33453 18.8252 8.30181 18.9785C8.6534 18.9222 8.86492 18.7301 9.1355 18.5963C9.14588 18.7097 9.23448 18.7481 9.24246 18.8635C8.66139 19.0608 8.16013 19.3364 7.67763 19.6288C7.68322 19.5161 7.56269 19.4878 7.56429 19.3935C7.56509 19.3588 7.61936 19.2797 7.64331 19.2409C7.72712 19.1047 7.85563 18.957 7.93225 18.8363C7.7343 18.7453 7.42062 18.7653 7.13886 18.7541C7.11252 18.6151 7.02432 18.5368 7.01914 18.377C7.58903 18.2357 8.00568 17.9465 8.47701 17.7108C7.96019 17.5215 7.26338 17.5024 6.65118 17.4045C6.65118 17.3063 6.65716 17.202 6.62164 17.1369C7.20671 16.8505 7.74548 16.4911 8.392 16.2846C8.45266 16.4256 8.45386 16.6445 8.44388 16.8366Z" fill="#B2284B"/>
<path d="M22.5922 19.1669C22.4238 19.627 22.1712 20.0016 21.986 20.4442C21.8607 20.4426 21.7841 20.3915 21.7027 20.3451C21.6939 20.3292 21.7322 20.3032 21.7525 20.2852C21.814 20.2297 21.8914 20.1642 21.9413 20.0963C21.6188 19.792 21.1623 19.6198 20.7393 19.4157C20.7624 19.2983 20.845 19.2396 20.8638 19.1174C21.2305 19.375 21.6931 19.5364 22.1097 19.7432C22.1995 19.6993 22.2099 19.5751 22.2646 19.4948C21.911 19.222 21.482 19.0247 21.043 18.839C21.0597 18.7084 21.1587 18.6605 21.191 18.5454C21.648 18.7639 22.0598 19.0255 22.5922 19.1669Z" fill="#B2284B"/>
<path d="M9.72131 20.1018C9.18972 20.2832 8.70443 20.5068 8.24668 20.7581C8.15449 20.6526 8.1034 20.5088 8.07068 20.3479C8.55517 20.1981 8.98778 19.996 9.35814 19.7356C9.33579 19.5219 9.07399 19.5391 8.90398 19.468C8.98778 19.4041 9.1123 19.3258 9.27273 19.3646C9.56247 19.4325 9.71732 19.7747 9.72131 20.1018Z" fill="#B2284B"/>
<path d="M20.9467 20.4875C21.0317 20.4911 21.1562 20.5546 21.2197 20.4875C21.1111 20.4731 21.0979 20.3613 20.9766 20.3589C20.9519 20.3872 20.9423 20.4304 20.9467 20.4875ZM21.7461 20.7363C21.3234 20.8346 20.8637 20.6924 20.4207 20.7163C20.4099 20.7914 20.5021 20.833 20.5149 20.8853C20.3536 20.8853 20.2439 20.9672 20.1521 21.0698C20.0687 21.1629 19.9366 21.3889 20.0727 21.5016C20.109 21.5315 20.1992 21.5651 20.2866 21.5567C20.465 21.5383 20.5915 21.359 20.7132 21.2236C20.8333 21.0898 20.9654 20.9356 21.165 20.9152C21.4759 20.8837 21.6483 21.0786 21.6227 21.4073C21.6072 21.5914 21.4695 21.641 21.4727 21.8894C21.3589 21.9042 21.2691 21.8654 21.1809 21.8395C21.3498 21.7744 21.4962 21.4472 21.3186 21.2879C20.9694 21.321 20.8621 21.5894 20.649 21.7751C20.562 21.8514 20.4762 21.9313 20.3165 21.9193C20.0882 21.9018 19.8727 21.7304 19.85 21.5223C19.8456 21.4848 19.8464 21.4425 19.85 21.4025C19.866 21.2004 19.9829 21.0275 20.0727 20.8657C20.1677 20.6948 20.259 20.533 20.301 20.3393C20.3636 20.3485 20.4247 20.3729 20.4953 20.3832C20.5596 20.3936 20.6522 20.4112 20.7132 20.3884C20.7994 20.3573 20.8174 20.158 20.8968 20.1053C20.8286 19.9519 20.6813 19.8776 20.5496 19.7873C20.5855 19.727 20.635 19.654 20.6789 19.618C20.8585 19.8017 21.0425 19.9823 21.2252 20.1648C21.406 20.3461 21.6255 20.4967 21.7461 20.7363Z" fill="#B2284B"/>
<path d="M9.37422 21.2246C9.31475 21.324 9.19982 21.3699 9.14753 21.4766C9.26447 21.4718 9.36743 21.4267 9.49394 21.4486C9.46601 21.3623 9.46281 21.2529 9.37422 21.2246ZM9.74856 20.3231C9.85392 20.3982 9.87547 20.5835 9.94092 20.6782C9.88744 20.8523 9.68391 20.8811 9.6009 21.0281C9.66874 21.1511 9.72302 21.2865 9.80603 21.3943C10.0032 21.4738 10.1947 21.3643 10.3448 21.312C10.3296 21.4586 10.3955 21.5533 10.3735 21.6895C9.7781 21.5501 9.06173 21.7613 8.43835 21.6615C8.5497 21.358 8.8586 21.2074 9.07969 20.9953C9.30757 20.7756 9.51789 20.5408 9.74856 20.3231Z" fill="#B2284B"/>
<path d="M11.2703 9.66881C11.3014 9.87689 10.9139 9.98912 11.0676 10.2232C11.2176 10.4524 11.7065 10.2391 11.505 9.94039C11.6387 9.9344 11.746 10.0127 11.8406 10.1301C11.7001 10.1864 11.596 10.2859 11.6059 10.3985C11.6937 10.4856 11.8342 10.5714 11.9627 10.6046C12.0242 10.6202 12.1144 10.6318 12.1798 10.6058C12.3538 10.5399 12.3251 10.357 12.2928 10.21C12.3814 10.1964 12.5083 10.2639 12.5159 10.3961C12.5278 10.613 12.2792 10.8774 12.1758 11.0647C11.9799 10.867 11.6941 10.7859 11.4435 10.714C11.3346 10.6833 11.2232 10.6441 11.1143 10.6022C11.0005 10.5579 10.878 10.5111 10.7998 10.4305C10.7838 10.4137 10.7678 10.369 10.7659 10.3346C10.7583 10.2184 10.7938 10.1121 10.8473 9.97794C10.9127 9.81139 11.0628 9.56017 11.2703 9.66881Z" fill="#B2284B"/>
<path d="M13.2972 9.70975C13.2633 9.75009 13.2126 9.73651 13.1927 9.79363C12.8858 9.71174 12.5525 9.44575 12.2373 9.30875C12.2289 9.37106 12.2572 9.43696 12.2844 9.49927C12.363 9.68339 12.5194 9.8739 12.5873 10.0632C12.5258 10.1567 12.446 10.1235 12.3829 10.2006C12.0577 9.7433 11.9551 9.25364 11.5947 8.80192C11.9244 8.46723 12.3881 9.04635 12.7832 9.15698C12.7852 9.09787 12.7529 9.02278 12.7226 8.95648C12.6355 8.75958 12.5102 8.5503 12.4033 8.35299C12.4592 8.29748 12.521 8.2811 12.5821 8.25754C12.8207 8.74161 13.0765 9.22328 13.2972 9.70975Z" fill="#B2284B"/>
<path d="M18.17 8.31684C18.1357 8.40431 18.0212 8.47261 17.9868 8.5473C17.9166 8.39153 17.7162 8.1463 17.5303 8.25613C17.4277 8.31764 17.381 8.45464 17.4153 8.59482C17.4928 8.91075 17.7865 9.22947 17.7202 9.52502C17.6899 9.65842 17.5542 9.81219 17.3467 9.86211C17.1032 9.92042 16.841 9.76346 16.7082 9.60171C16.6654 9.55058 16.59 9.43915 16.614 9.35568C16.6355 9.27939 16.7656 9.21589 16.8754 9.21429C16.9101 9.31094 16.8379 9.39162 16.855 9.49427C16.8766 9.62407 16.9943 9.6716 17.0765 9.74429C17.231 9.7403 17.3567 9.64284 17.3826 9.53501C17.4357 9.31254 17.2669 9.0118 17.1839 8.73182C17.0965 8.44146 17.0809 8.12673 17.4325 8.04286C17.575 8.00891 17.7262 8.04485 17.8468 8.09078C17.9741 8.13991 18.0858 8.21819 18.17 8.31684Z" fill="#B2284B"/>
<path d="M15.9943 26.2085C15.8634 26.2241 15.8059 26.4206 15.6862 26.4669C15.4958 26.54 15.1913 26.4693 14.9894 26.4522C14.2662 26.3886 13.6688 26.3879 12.9481 26.3399C12.8503 26.9063 13.395 26.8531 13.8955 26.8803C14.8425 26.9318 15.9979 26.9478 16.8631 26.9925C16.7941 26.7829 16.7314 26.532 16.7789 26.2525C16.5466 26.2904 16.2274 26.1802 15.9943 26.2085ZM11.6766 25.2903C11.6103 25.3882 11.5604 25.4541 11.5604 25.5914C11.5604 25.772 11.5943 25.9581 11.7161 26.0284C11.9168 26.145 12.3011 26.1358 12.6064 26.1286C13.5958 26.1047 14.5404 26.2716 15.5006 26.2576C15.426 26.0559 15.4021 25.7676 15.4479 25.4912C14.2024 25.4149 12.8718 25.3534 11.6167 25.2871C11.6095 25.2887 11.6279 25.2607 11.6235 25.2651M15.4519 25.113C15.23 25.113 15.0161 25.1022 14.8002 25.093C14.2307 25.0682 13.6652 25.0251 13.1045 24.9983C12.8172 24.9848 12.5354 24.9404 12.2536 24.9532C12.1327 24.9592 11.991 24.9816 11.91 25.0331C11.8877 25.0483 11.853 25.0682 11.8554 25.0982C13.0666 25.1597 14.2782 25.2228 15.4615 25.3119C15.4891 25.2895 15.4982 25.2639 15.5266 25.242C15.5653 25.214 15.622 25.2008 15.6359 25.1477C15.5924 25.091 15.5114 25.113 15.4519 25.113ZM17.0587 26.1183C17.008 26.1698 16.9066 26.2525 16.8903 26.3028C16.8563 26.4018 16.8907 26.5424 16.9098 26.6367C16.9322 26.7445 16.9322 26.8935 16.9637 26.9818C17.2355 26.7797 17.4837 26.4649 17.7208 26.2285C17.9578 25.99 18.2396 25.6957 18.4639 25.4437C18.3864 25.2939 18.4196 25.0075 18.4056 24.7935C18.0161 25.1849 17.4661 25.7113 17.0587 26.1183ZM17.3867 24.7443C17.3819 24.7451 17.3819 24.7523 17.3827 24.7595C17.3568 24.9105 17.2211 24.9908 17.1189 25.093C16.9342 25.2779 16.7645 25.4541 16.5961 25.6354C16.5083 25.7312 16.4261 25.8339 16.3427 25.9146C16.3247 25.9321 16.2741 25.9529 16.2828 25.9693C16.4129 25.9797 16.5522 25.9817 16.6759 25.9896C16.719 25.9916 16.7773 26.0052 16.8053 25.9988C16.8372 25.992 16.9138 25.9054 16.9545 25.8646C17.2007 25.6182 17.4278 25.381 17.6665 25.1429C17.7914 25.0167 17.8992 24.8933 18.0336 24.8042C17.8189 24.7839 17.6086 24.7583 17.3867 24.7443ZM17.0639 24.1804C16.8356 24.4164 16.4784 24.8174 16.2338 25.063C16.1986 25.0978 16.1484 25.1549 16.1188 25.1625C16.0677 25.1761 16.0194 25.1693 15.9795 25.1773C15.5832 25.2588 15.4204 25.8531 15.622 26.2365C16.1324 25.7911 16.737 25.2312 17.1696 24.7088C17.0974 24.6065 17.1114 24.307 17.0639 24.1804ZM12.0745 24.5642C12.2185 24.8298 12.5761 24.8042 12.9948 24.8042C13.3392 24.8042 13.6708 24.8262 13.9745 24.8434C14.6609 24.8841 15.3394 24.9189 15.96 24.952C15.873 24.7435 15.847 24.4667 15.8702 24.1804C14.5979 24.144 13.4118 24.0374 12.1591 23.9823C12.0533 24.1033 12.0166 24.1548 12.0321 24.3809M17.4653 22.7637C17.4653 22.7601 17.5931 22.6307 17.4917 22.7318C17.2602 22.9642 16.9278 23.3125 16.666 23.5741C16.5514 23.6895 16.4066 23.795 16.2733 23.9132C16.1519 24.0206 15.9915 24.1692 15.9747 24.3513C15.9548 24.5566 16.0246 24.7447 16.0554 24.9201C16.567 24.4763 17.1353 23.8485 17.5871 23.3448C17.4717 23.235 17.5942 22.8556 17.5264 22.6982M14.2898 22.5401C14.4231 22.5401 14.4674 22.5488 14.0048 22.8424C13.5227 23.1479 12.994 23.4367 12.5422 23.7682C12.5326 23.775 12.5083 23.7802 12.5123 23.799C13.5826 23.8321 14.6246 23.9427 15.701 23.9727C15.7756 23.9751 15.8682 23.9951 15.9201 23.9823C15.9616 23.9727 16.0454 23.8688 16.0897 23.8281C16.1495 23.7722 16.2042 23.7203 16.2581 23.6691C16.5897 23.3572 16.9114 23.0685 17.2039 22.733C17.2111 22.7238 17.2411 22.6886 17.2231 22.6886C16.5359 22.6826 14.9742 22.6754 14.3664 22.546C14.3604 22.5448 14.5552 22.5552 14.556 22.562M17.7758 22.5293C17.6497 22.7497 17.5871 23.255 17.7758 23.4555C17.5827 23.773 17.1525 23.9016 17.2127 24.4412C17.6597 24.5279 18.1841 24.5382 18.6714 24.5854C18.679 24.6121 18.6522 24.6349 18.6411 24.6597C18.5413 24.8817 18.4838 25.3438 18.6814 25.5164C18.1953 26.0575 17.6657 26.5915 17.1393 27.1191C17.105 27.1523 17.0539 27.2118 17.0295 27.2186C16.9621 27.237 16.8164 27.2126 16.7155 27.2086C15.9775 27.1791 15.2919 27.1379 14.5668 27.1044C14.1928 27.0868 13.7414 27.0796 13.3432 27.0397C12.9074 26.9957 12.5382 26.8504 12.6216 26.3371C12.2828 26.288 11.9527 26.3211 11.6762 26.2433C11.3964 26.1634 11.2495 25.9593 11.2687 25.6154C11.2807 25.3985 11.3697 25.1813 11.5125 25.0734C11.6299 24.984 11.7835 24.95 11.8953 24.849C11.6642 24.6469 11.679 24.0757 11.8554 23.8433C11.9623 23.7023 12.1882 23.5965 12.3586 23.5046C12.8982 23.2142 13.5782 22.7338 14.0843 22.4374" fill="#B2284B"/>
<path d="M15.3934 18.1972C15.5303 18.6896 15.646 18.8386 15.4716 19.1361C15.0717 19.8179 15.3606 18.7367 15.2238 18.2443C15.0869 17.7518 14.9372 17.271 15.031 17.245C15.1244 17.219 15.2565 17.7047 15.3934 18.1972Z" fill="#B2284B"/>
<path d="M14.4349 17.7465C14.302 17.7984 14.2549 17.9881 14.3203 18.1151C14.3467 18.1663 14.3886 18.2082 14.4169 18.2581C14.4788 18.3672 14.4692 18.5086 14.4089 18.6184C14.3487 18.7282 14.2433 18.8089 14.128 18.858C13.9696 18.9259 13.7928 18.9383 13.6307 18.997C13.4687 19.0553 13.3099 19.1847 13.3027 19.3573C13.357 19.3565 13.4108 19.3349 13.4503 19.2978C13.4659 19.3796 13.4815 19.4615 13.4966 19.5434C13.5573 19.3996 13.681 19.2842 13.8287 19.2343C13.9404 19.1963 14.0609 19.1951 14.1775 19.174C14.4664 19.1216 14.753 18.8916 14.745 18.5976C14.7422 18.503 14.7099 18.4123 14.6779 18.3232C14.646 18.2342 14.6137 18.1447 14.5818 18.0556C14.5857 17.8979 14.81 18.0165 14.915 18.076C15.02 18.1351 15.2075 18.1866 15.1979 18.1515C15.1936 18.1355 15.1856 18.1088 15.1808 18.0908C15.176 18.0736 15.1652 17.9897 15.1524 17.9774C15.0016 17.8268 14.7059 17.6407 14.4349 17.7465Z" fill="#B2284B"/>
<path d="M15.3154 17.918C15.3892 17.8885 15.313 17.9188 15.3928 17.8869C15.5544 17.8218 15.7416 17.7543 15.8952 17.8361C15.9934 17.8885 16.0533 17.9903 16.108 18.0874C16.1806 18.216 16.2536 18.3466 16.2931 18.4888C16.3382 18.6513 16.3406 18.8314 16.4352 18.9712C16.4608 19.0084 16.4919 19.0415 16.5206 19.0763C16.693 19.2828 16.7876 19.5532 16.7812 19.8224C16.7134 19.7636 16.6379 19.7133 16.5573 19.6738C16.5669 19.7608 16.5322 19.8515 16.4663 19.9098C16.4771 19.6758 16.3929 19.4385 16.2365 19.2636C16.197 19.2193 16.1523 19.1781 16.1207 19.1274C16.086 19.0715 16.0688 19.0064 16.0517 18.9425C16.0245 18.8394 15.9974 18.736 15.9703 18.6329C15.9371 18.5063 15.9028 18.3773 15.8286 18.2699C15.7544 18.1625 15.6314 18.0794 15.5013 18.0894C15.4068 18.0966 15.4666 18.1229 15.372 18.1197" fill="#B2284B"/>
<path d="M9.69927 5.23172C9.92914 5.32079 10.424 5.29683 10.61 5.03002C10.608 5.02563 10.6116 5.02444 10.6108 5.02084C10.3518 5.02164 9.95189 4.99368 9.69927 5.23172ZM10.8586 4.88065C10.8451 5.17461 10.5014 5.39628 10.1415 5.44141C9.85931 5.47536 9.58393 5.42983 9.40674 5.27166C9.56358 4.97891 10.0122 4.86388 10.351 4.8483C10.535 4.83952 10.7329 4.8523 10.8586 4.88065Z" fill="#B2284B"/>
<path d="M12.0103 4.80987C11.7995 4.68206 11.3079 4.61856 11.078 4.84861C11.0792 4.85301 11.0756 4.8538 11.0756 4.8574C11.331 4.90213 11.7193 4.99998 12.0103 4.80987ZM10.807 4.95206C10.8721 4.66529 11.2492 4.50713 11.6112 4.5259C11.8953 4.54188 12.1583 4.63493 12.3048 4.82185C12.0993 5.08266 11.6371 5.11741 11.3011 5.07307C11.1187 5.04951 10.9255 5.00198 10.807 4.95206Z" fill="#B2284B"/>
<path d="M20.3528 5.19004C20.1002 4.952 19.7003 4.97995 19.4413 4.97915C19.4405 4.98275 19.4441 4.98395 19.4421 4.98834C19.6281 5.25514 20.123 5.27911 20.3528 5.19004ZM19.1935 4.83896C19.3192 4.81061 19.5171 4.79783 19.7011 4.80662C20.0399 4.82219 20.4885 4.93722 20.6454 5.22998C20.4682 5.38814 20.1928 5.43367 19.9106 5.39972C19.5507 5.35459 19.2071 5.13292 19.1935 4.83896Z" fill="#B2284B"/>
<path d="M18.0418 4.76823C18.3328 4.95795 18.7211 4.86049 18.9765 4.81576C18.9765 4.81216 18.9729 4.81136 18.9741 4.80697C18.7442 4.57692 18.2526 4.64042 18.0418 4.76823ZM19.2451 4.91042C19.1266 4.96034 18.9334 5.00787 18.751 5.03143C18.415 5.07577 17.9528 5.04102 17.7473 4.78021C17.8938 4.59329 18.1568 4.50024 18.4409 4.48426C18.8029 4.46549 19.18 4.62365 19.2451 4.91042Z" fill="#B2284B"/>
<path d="M15.4052 13.8724C15.7085 13.6524 16.0876 13.0009 15.9012 12.5428C15.8945 12.5412 15.8957 12.536 15.8905 12.534C15.6774 12.8655 15.311 13.3524 15.4052 13.8724ZM15.9168 12.1015C16.28 12.3619 16.2788 12.9842 16.0381 13.481C15.8482 13.8696 15.5624 14.1836 15.214 14.2786C14.9702 13.8361 15.1949 13.1683 15.4555 12.7226C15.5963 12.4809 15.7767 12.2385 15.9168 12.1015Z" fill="#B2284B"/>
<path d="M14.704 14.0807C14.72 14.1011 14.7435 14.141 14.7539 14.1247C14.7076 13.5056 14.5755 12.9868 14.2706 12.6657C14.2646 13.2672 14.4474 13.762 14.704 14.0807ZM15.0073 14.8128C14.9838 14.832 14.9431 14.7809 14.9147 14.7585C14.4741 14.403 14.0583 13.7548 14 12.9772C13.9805 12.702 14.0236 12.3697 14.1058 12.1748C14.8589 12.4903 15.1267 13.7221 15.0073 14.8128Z" fill="#B2284B"/>
<path d="M14.7464 16.9907C14.7204 16.3034 14.4527 15.8205 13.965 15.6783C14.042 16.3489 14.3968 16.666 14.7464 16.9907ZM13.9438 14.0576C13.943 14.0516 13.9362 14.054 13.9382 14.0639C13.9841 14.5001 14.0623 14.9063 14.2336 15.1775C14.289 15.2661 14.3549 15.3512 14.4435 15.3923C14.4459 14.8192 14.2687 14.2952 13.9438 14.0576ZM14.5696 15.7953C14.8881 16.1069 15.07 16.9069 14.9379 17.4365C14.8561 17.3969 14.7871 17.327 14.7121 17.2683C14.4902 17.0934 14.2759 16.8933 14.0983 16.6552C13.8856 16.3713 13.6581 15.8393 13.8237 15.3887C13.9626 15.3676 14.026 15.4403 14.1282 15.4638C13.8393 15.0517 13.6565 14.28 13.6892 13.6082C13.694 13.6066 13.6948 13.6098 13.6952 13.613C14.0683 13.7269 14.323 14.0408 14.491 14.4386C14.6566 14.8324 14.7288 15.4359 14.5696 15.7953Z" fill="#B2284B"/>
<path d="M16.0569 15.5057C15.6551 15.6546 15.3753 16.3432 15.4567 16.8996C15.7026 16.5257 16.0641 16.1443 16.0681 15.5133C16.0685 15.5097 16.0685 15.5061 16.0633 15.5069L16.0569 15.5057ZM15.685 15.1506C15.9141 14.8275 16.3084 14.4133 16.2409 13.8877C16.2417 13.8845 16.2417 13.8805 16.2349 13.8805C15.9807 14.1577 15.6351 14.6118 15.685 15.1506ZM16.3766 13.4628L16.3886 13.4651C16.5035 13.6073 16.5674 13.7795 16.5422 14.0071C16.4832 14.5447 16.1775 14.9202 15.9536 15.2385C16.1212 15.2592 16.2074 15.1606 16.377 15.1834C16.3798 16.243 15.7736 17.0078 15.2161 17.4839C15.1686 17.1939 15.1355 16.9175 15.1622 16.6104C15.1758 16.4387 15.2069 16.2609 15.2652 16.1148C15.3186 15.9826 15.4108 15.8703 15.4503 15.7297C15.5365 15.4282 15.3857 15.165 15.4172 14.879C15.4535 14.5407 15.6084 14.2444 15.7792 14.0187C15.9508 13.7915 16.1551 13.6153 16.3766 13.4628Z" fill="#B2284B"/>
<path d="M15.0655 12.5746C15.287 12.1484 15.5384 11.2761 15.2187 10.8648C14.9537 11.251 14.7909 12.17 15.0655 12.5746ZM15.1497 10.3999C15.5919 10.5912 15.7364 11.0473 15.6893 11.6C15.6318 12.2571 15.3532 12.7902 15.0878 13.19C14.3575 12.7227 14.5267 10.9271 15.1497 10.3999Z" fill="#B2284B"/>
<path d="M16.5935 7.14771C16.7655 14.241 17.3478 20.0562 18.2868 20.0562" stroke="#B2284B" stroke-width="0.451841" stroke-linecap="round"/>
<path d="M13.6112 7.15545C13.4392 14.2488 13.0146 20.056 12.0755 20.056" stroke="#B2284B" stroke-width="0.451841" stroke-linecap="round"/>
<path d="M12.0257 20.0667C12.1969 20.4034 13.4756 20.7544 15.0967 20.7544" stroke="#B2284B" stroke-width="0.408138" stroke-linecap="round"/>
<path d="M18.2869 20.0561C18.1169 20.4032 16.7236 20.7507 15.1025 20.7507" stroke="#B2284B" stroke-width="0.408138" stroke-linecap="round"/>
<path d="M13.6111 7.15547C13.6111 7.15108 14.8595 6.92941 16.4299 7.14788" stroke="#B2284B" stroke-width="0.467396" stroke-linecap="round"/>
<path d="M13.5337 7.16214C13.985 7.06468 12.6808 7.33667 12.2945 7.56952C11.9078 7.80237 11.6288 8.07995 11.3463 8.43182C11.0018 8.86117 10.5485 9.27934 10.3018 9.7714C9.98736 10.3993 9.75549 11.0834 9.41467 11.6973C9.17841 12.1219 8.86951 12.5005 8.57259 12.8847C8.09488 13.5034 7.64511 14.1436 7.21928 14.7994C6.70805 15.587 6.21877 16.4381 6.1593 17.3755C6.10024 18.3061 6.47378 19.2104 6.92954 20.0231C7.20451 20.5128 7.517 20.9981 7.62236 21.55C7.72812 22.1052 7.6052 22.7007 7.28832 23.1684C7.23764 23.2431 7.17977 23.3222 7.18137 23.4124C7.18456 23.6153 7.45075 23.6836 7.65349 23.6916C8.57499 23.7275 9.49688 23.7631 10.4188 23.799C10.7863 23.1464 11.1663 22.4319 11.0629 21.6898C11.0122 21.3284 10.8498 20.9941 10.6894 20.667C10.4108 20.099 10.1326 19.5315 9.85446 18.9639C9.59865 18.4423 9.33685 17.8928 9.36279 17.3128C9.38314 16.8583 9.58069 16.429 9.82972 16.0487C10.4563 15.093 11.4213 14.3721 11.9193 13.344C12.3077 12.5428 12.7211 11.1869 13.4503 10.8014" stroke="#B2284B" stroke-width="0.451841"/>
<path d="M16.3097 7.17114C16.7144 7.07808 17.4 7.27778 17.7867 7.51023C18.173 7.74308 18.5147 7.97992 18.7972 8.33179C19.1416 8.76074 19.4693 9.20767 19.7159 9.69973C20.0304 10.3272 20.2084 11.0185 20.5492 11.6324C20.7851 12.057 21.0944 12.4356 21.3913 12.8198C21.869 13.4389 22.3188 14.0787 22.7446 14.7345C23.2558 15.5225 23.7451 16.3733 23.8046 17.3106C23.8636 18.2412 23.4901 19.1455 23.0339 19.9583C22.7594 20.4483 22.4465 20.9336 22.3415 21.4852C22.2358 22.0403 22.3587 22.6358 22.6756 23.1035C22.7262 23.1782 22.7841 23.2573 22.7825 23.3475C22.7793 23.5504 22.5131 23.6187 22.3104 23.6267C21.3885 23.6627 20.467 23.6986 19.5451 23.7342C19.1775 23.0815 18.7976 22.367 18.901 21.6249C18.9517 21.2639 19.1141 20.9296 19.2745 20.6021C19.5527 20.0341 19.8313 19.4666 20.1094 18.8991C20.3648 18.3774 20.6266 17.8279 20.6011 17.2479C20.5807 16.7934 20.3832 16.3641 20.1338 15.9839C19.5076 15.0285 18.5426 14.3072 18.0441 13.2791C17.6562 12.4779 17.5357 11.4782 16.8221 10.9466" stroke="#B2284B" stroke-width="0.451841"/>
<path d="M12.6024 4.73987C13.4209 4.61845 14.0902 4.5865 15.0708 4.5865C16.0158 4.5865 16.6859 4.61965 17.4821 4.73308" stroke="#B2284B" stroke-width="0.138889" stroke-linecap="round"/>
<path fill-rule="evenodd" clip-rule="evenodd" d="M17.3431 16.9659L17.1379 15.8317L20.4532 18.0395L20.1435 18.76L17.3431 16.9659Z" stroke="#B2284B" stroke-width="0.22592"/>
<path fill-rule="evenodd" clip-rule="evenodd" d="M22.8783 20.5123L23.186 19.8597L26.9374 22.3579L26.5902 22.8907L22.8783 20.5123Z" stroke="#B2284B" stroke-width="0.188143"/>
<path fill-rule="evenodd" clip-rule="evenodd" d="M12.9836 16.9982L13.0479 15.9473L9.54626 18.2794L9.85436 18.9636L12.9836 16.9982Z" stroke="#B2284B" stroke-width="0.22592"/>
<path fill-rule="evenodd" clip-rule="evenodd" d="M3.49204 23.0752L3.14484 22.5428L6.87831 20.0561L7.21075 20.6928L3.49204 23.0752Z" stroke="#B2284B" stroke-width="0.188143"/>
<path fill-rule="evenodd" clip-rule="evenodd" d="M16.9516 14.4523L16.8622 13.4071L17.8057 12.7784L18.2008 13.6519L16.9516 14.4523Z" stroke="#B2284B" stroke-width="0.301104"/>
<path fill-rule="evenodd" clip-rule="evenodd" d="M11.8635 13.4545L12.2582 12.5822L13.2994 13.2755L13.2484 14.3232L11.8635 13.4545Z" stroke="#B2284B" stroke-width="0.301104"/>
<path d="M9.75077 11.0095L9.24872 11.8123L8.2039 11.1573L7.79563 11.0806C7.73976 11.0698 7.68589 11.0506 7.6364 11.0227L6.32938 10.291L4.27408 10.3537L3.956 10.172C3.81353 10.0909 3.74528 9.92234 3.79158 9.76497L4.05258 8.87112C4.10207 8.70178 4.06336 8.51845 3.94882 8.38386L3.04608 7.32106" stroke="#B2284B" stroke-width="0.301104" stroke-linecap="round"/>
<path d="M9.22625 11.9378L9.75065 11.1494L8.7242 10.466L8.48594 10.1253C8.45361 10.0786 8.4137 10.0378 8.36821 10.0039L7.16376 9.11323L6.37476 7.21251L6.07864 6.99723C5.94614 6.90057 5.76455 6.90776 5.64044 7.0144L4.93365 7.62069C4.79956 7.73571 4.61677 7.77565 4.44716 7.72653L3.10742 7.34071" stroke="#B2284B" stroke-width="0.301104" stroke-linecap="round"/>
<path d="M20.2329 11.0095L20.735 11.8123L21.7798 11.1573L22.188 11.0806C22.2439 11.0698 22.2978 11.0506 22.3473 11.0227L23.6543 10.291L25.7096 10.3537L26.0277 10.172C26.1702 10.0909 26.2384 9.92234 26.1921 9.76497L25.9311 8.87112C25.8816 8.70178 25.9203 8.51845 26.0349 8.38386L26.9376 7.32106" stroke="#B2284B" stroke-width="0.301104" stroke-linecap="round"/>
<path d="M20.7576 11.9378L20.2332 11.1494L21.2596 10.466L21.4979 10.1253C21.5302 10.0786 21.5701 10.0378 21.6156 10.0039L22.82 9.11323L23.609 7.21251L23.9052 6.99723C24.0377 6.90057 24.2193 6.90776 24.3434 7.0144L25.0502 7.62069C25.1842 7.73571 25.367 7.77565 25.5366 7.72653L26.8764 7.34071" stroke="#B2284B" stroke-width="0.301104" stroke-linecap="round"/>
<path fill-rule="evenodd" clip-rule="evenodd" d="M29.4476 15.0125C29.4476 22.9969 22.98 29.4695 15.0018 29.4695C7.02323 29.4695 0.555603 22.9969 0.555603 15.0125C0.555603 7.02819 7.02323 0.555546 15.0018 0.555546C22.98 0.555546 29.4476 7.02819 29.4476 15.0125Z" stroke="#B2284B" stroke-width="0.752944"/>
<path d="M3.72778 22.1314C2.42356 20.0725 1.66888 17.6306 1.66888 15.0126C1.66888 12.462 2.38525 10.0792 3.62761 8.05427C3.63879 8.0363 3.64956 8.01832 3.66074 8.00075" stroke="#B2284B" stroke-width="0.290363"/>
<path d="M25.9946 22.4763C23.6021 26.0077 19.5589 28.3282 14.9742 28.3282C10.4848 28.3282 6.51467 26.1032 4.10498 22.6947C4.10019 22.688 4.095 22.6808 4.09021 22.674" stroke="#B2284B" stroke-width="0.290363"/>
<path d="M26.2898 8.00419C26.3034 8.02655 26.3173 8.04852 26.3309 8.07089C27.5673 10.0922 28.2797 12.4691 28.2797 15.0124C28.2797 17.5406 27.5757 19.9038 26.3532 21.9172C26.3461 21.9296 26.3385 21.942 26.3309 21.9539" stroke="#B2284B" stroke-width="0.290363"/>
<path d="M3.97192 7.52207C6.36685 4.00577 10.4012 1.69685 14.974 1.69685C19.5607 1.69685 23.6055 4.01935 25.9976 7.55362" stroke="#B2284B" stroke-width="0.290363"/>
<path d="M9.36823 7.0224V4.75023" stroke="#B2284B" stroke-width="0.374805"/>
<path d="M11.6656 8.31395C10.2073 8.07112 9.27625 7.56388 9.36804 7.0223C9.49854 6.25466 11.929 5.73105 15.0674 5.73105C18.2063 5.73105 20.847 6.26424 20.8288 7.0223C20.8143 7.62459 20.0512 8.07911 18.5583 8.31395" stroke="#B2284B" stroke-width="0.374805"/>
<path d="M20.8145 4.77849C20.8145 4.25048 18.2149 3.70571 15.1183 3.68214" stroke="#B2284B" stroke-width="0.374805"/>
<path d="M20.8146 6.89352V4.76953" stroke="#B2284B" stroke-width="0.374805"/>
<path d="M9.36823 4.78279C9.36823 4.25479 12.0948 3.66368 15.1742 3.68205" stroke="#B2284B" stroke-width="0.374805"/>
<path d="M37.6351 16.7665C37.6351 17.6056 37.6351 18.5194 38.4284 19.1932C38.8323 19.5379 39.5212 19.7627 40.0747 19.7627C40.6286 19.7627 41.3175 19.5379 41.7213 19.1932C42.5147 18.5194 42.5147 17.6056 42.5147 16.7665V10.6397H43.6222V17.0664C43.6222 17.9051 43.5324 18.7139 42.9936 19.4632C42.395 20.2867 41.347 20.8112 40.0747 20.8112C38.8024 20.8112 37.7548 20.2867 37.1562 19.4632C36.6174 18.7139 36.5276 17.9051 36.5276 17.0664V10.6397H37.6351V16.7665Z" fill="#B2284B"/>
<path d="M46.1954 20.6314V10.2207L53.9788 18.3844V10.6397H55.0863V21.0807L47.3028 12.917V20.6314H46.1954Z" fill="#B2284B"/>
<path d="M58.7667 20.6315H57.6592V10.6397H58.7667V20.6315Z" fill="#B2284B"/>
<path d="M61.4003 10.6398L64.2143 18.2647L67.0287 10.6398L68.2559 10.6398L64.2143 21.2306L60.1727 10.6398H61.4003Z" fill="#B2284B"/>
<path d="M74.8405 11.6886H70.769V14.6545H74.7207V15.7034H70.769V19.5831H74.8405V20.6315H69.6615V10.6398H74.8405V11.6886Z" fill="#B2284B"/>
<path d="M78.4767 10.6397C79.1499 10.6397 80.1528 10.6845 80.9011 11.1941C81.485 11.5835 81.9942 12.348 81.9942 13.4112C81.9942 14.9393 80.9913 16.0624 79.4792 16.1674L82.6527 20.6315H81.3054L78.2667 16.2577H77.9826V20.6315H76.8751V10.6397H78.4767ZM77.9826 15.2688H78.6862C80.063 15.2688 80.8864 14.6098 80.8864 13.4411C80.8864 12.8867 80.7219 12.3324 80.0934 11.9729C79.644 11.7185 79.1352 11.6886 78.6563 11.6886H77.9826V15.2688Z" fill="#B2284B"/>
<path d="M88.8484 12.6173C88.7139 12.3477 88.4892 12.0478 88.2645 11.8684C88.0702 11.7187 87.7106 11.5237 87.1419 11.5237C86.1541 11.5237 85.4653 12.138 85.4653 13.0666C85.4653 13.4564 85.5703 13.6809 85.8397 13.9357C86.139 14.2353 86.5133 14.3998 86.8877 14.5648L87.8455 14.9841C88.4293 15.2385 88.9681 15.5081 89.3872 15.9279C89.896 16.4367 90.1055 17.0211 90.1055 17.7404C90.1055 19.5828 88.7434 20.8113 86.9475 20.8113C86.2886 20.8113 85.4653 20.6763 84.7769 20.0022C84.2832 19.5229 83.9839 18.8335 83.849 18.2344L84.9265 17.9349C85.0016 18.4593 85.241 18.909 85.5256 19.2086C85.9594 19.6427 86.4534 19.7629 86.9623 19.7629C88.3248 19.7629 88.9681 18.7888 88.9681 17.7851C88.9681 17.3358 88.8332 16.9464 88.4744 16.6169C88.1899 16.3473 87.8008 16.1675 87.2768 15.9279L86.3788 15.5081C85.9893 15.3284 85.4956 15.1191 85.0467 14.6846C84.6125 14.2652 84.3578 13.8007 84.3578 13.0518C84.3578 11.509 85.5403 10.4753 87.157 10.4753C87.7708 10.4753 88.2645 10.5951 88.7586 10.9247C89.1629 11.1942 89.5069 11.5984 89.7316 12.033L88.8484 12.6173Z" fill="#B2284B"/>
<path d="M93.2476 20.6315H92.1401V10.6397H93.2476V20.6315Z" fill="#B2284B"/>
<path d="M98.2763 11.6886V20.6315H97.1688V11.6886H94.7435V10.6398H100.701V11.6886H98.2763Z" fill="#B2284B"/>
<path d="M107.032 17.8153H102.781L101.583 20.6314H100.356L104.951 10.1604L109.427 20.6314H108.199L107.032 17.8153ZM102.751 8.09315L103.798 7.41936L105.684 9.36683L105.041 9.8461L102.751 8.09315ZM106.597 16.7665L104.921 12.7669L103.215 16.7665H106.597Z" fill="#B2284B"/>
<path d="M114.319 10.6396H116.354C117.357 10.6396 118.779 10.7447 120.037 11.8083C120.95 12.5723 121.743 13.8456 121.743 15.6433C121.743 17.7405 120.71 18.8636 119.991 19.4779C119.078 20.2567 118.121 20.6314 116.339 20.6314H114.319V10.6396ZM115.426 19.583H116.399C117.193 19.583 118.285 19.4927 119.258 18.6839C120.007 18.0549 120.605 17.0664 120.605 15.6433C120.605 13.2465 118.929 11.6885 116.399 11.6885H115.426V19.583Z" fill="#B2284B"/>
<path d="M124.885 20.6315H123.777V10.6397H124.885V20.6315Z" fill="#B2284B"/>
<path d="M132.756 10.6397C133.759 10.6397 134.597 10.7599 135.271 11.3438C136.004 11.9729 136.184 12.8567 136.184 13.4858C136.184 14.8945 135.301 16.2872 133.026 16.2872H132.053V20.6314H130.945V10.6397H132.756ZM132.053 15.2387H132.966C134.283 15.2387 135.076 14.5797 135.076 13.4263C135.076 11.8383 133.595 11.6885 132.876 11.6885H132.053V15.2387Z" fill="#B2284B"/>
<path d="M142.5 17.8153H138.249L137.052 20.6314H135.824L140.419 10.1604L144.895 20.6314H143.667L142.5 17.8153ZM142.066 16.7665L140.389 12.7669L138.683 16.7665H142.066Z" fill="#B2284B"/>
<path d="M145.582 10.6398L148.396 18.2647L151.21 10.6398L152.438 10.6398L148.396 21.2306L144.355 10.6398H145.582Z" fill="#B2284B"/>
<path d="M154.951 20.6315H153.844V10.6397H154.951V20.6315Z" fill="#B2284B"/>
<path d="M163.033 17.8153H158.782L157.585 20.6314H156.357L160.952 10.1604L165.428 20.6314H164.201L163.033 17.8153ZM162.599 16.7665L160.923 12.7669L159.216 16.7665H162.599Z" fill="#B2284B"/>
</g>
<defs>
<clipPath id="clip0_64_1021">
<rect width="165.556" height="30" fill="white"/>
</clipPath>
</defs>
</svg>
